<mxfile host="Electron" agent="Mozilla/5.0 (Windows NT 10.0; Win64; x64) AppleWebKit/537.36 (KHTML, like Gecko) draw.io/24.7.17 Chrome/128.0.6613.36 Electron/32.0.1 Safari/537.36" version="24.7.17" pages="3">
  <diagram name="Page-1" id="XwyM3nPIiUMkYs5svzkn">
    <mxGraphModel dx="1744" dy="1036" grid="1" gridSize="10" guides="1" tooltips="1" connect="1" arrows="1" fold="1" page="1" pageScale="1" pageWidth="1169" pageHeight="827" math="0" shadow="0">
      <root>
        <mxCell id="tGi2XLsGErRzi48nDTFP-0" />
        <mxCell id="tGi2XLsGErRzi48nDTFP-1" parent="tGi2XLsGErRzi48nDTFP-0" />
        <mxCell id="b1j5PnSS1ncNtvrSyaUf-3" value="AWS Cloud" style="points=[[0,0],[0.25,0],[0.5,0],[0.75,0],[1,0],[1,0.25],[1,0.5],[1,0.75],[1,1],[0.75,1],[0.5,1],[0.25,1],[0,1],[0,0.75],[0,0.5],[0,0.25]];outlineConnect=0;gradientColor=none;html=1;whiteSpace=wrap;fontSize=12;fontStyle=0;container=1;pointerEvents=0;collapsible=0;recursiveResize=0;shape=mxgraph.aws4.group;grIcon=mxgraph.aws4.group_aws_cloud_alt;strokeColor=#232F3E;fillColor=none;verticalAlign=top;align=left;spacingLeft=30;fontColor=#232F3E;dashed=0;" parent="tGi2XLsGErRzi48nDTFP-1" vertex="1">
          <mxGeometry x="173.5" y="30" width="1067.5" height="950" as="geometry" />
        </mxCell>
        <mxCell id="b1j5PnSS1ncNtvrSyaUf-4" value="Region" style="points=[[0,0],[0.25,0],[0.5,0],[0.75,0],[1,0],[1,0.25],[1,0.5],[1,0.75],[1,1],[0.75,1],[0.5,1],[0.25,1],[0,1],[0,0.75],[0,0.5],[0,0.25]];outlineConnect=0;gradientColor=none;html=1;whiteSpace=wrap;fontSize=12;fontStyle=0;container=1;pointerEvents=0;collapsible=0;recursiveResize=0;shape=mxgraph.aws4.group;grIcon=mxgraph.aws4.group_region;strokeColor=#00A4A6;fillColor=none;verticalAlign=top;align=left;spacingLeft=30;fontColor=#147EBA;dashed=1;" parent="b1j5PnSS1ncNtvrSyaUf-3" vertex="1">
          <mxGeometry x="30" y="42" width="1001.5" height="868" as="geometry" />
        </mxCell>
        <mxCell id="b1j5PnSS1ncNtvrSyaUf-18" value="Systems Manager&lt;br&gt;Session Manager" style="sketch=0;points=[[0,0,0],[0.25,0,0],[0.5,0,0],[0.75,0,0],[1,0,0],[0,1,0],[0.25,1,0],[0.5,1,0],[0.75,1,0],[1,1,0],[0,0.25,0],[0,0.5,0],[0,0.75,0],[1,0.25,0],[1,0.5,0],[1,0.75,0]];points=[[0,0,0],[0.25,0,0],[0.5,0,0],[0.75,0,0],[1,0,0],[0,1,0],[0.25,1,0],[0.5,1,0],[0.75,1,0],[1,1,0],[0,0.25,0],[0,0.5,0],[0,0.75,0],[1,0.25,0],[1,0.5,0],[1,0.75,0]];outlineConnect=0;fontColor=#232F3E;fillColor=#E7157B;strokeColor=#ffffff;dashed=0;verticalLabelPosition=bottom;verticalAlign=top;align=center;html=1;fontSize=12;fontStyle=0;aspect=fixed;shape=mxgraph.aws4.resourceIcon;resIcon=mxgraph.aws4.systems_manager;" parent="b1j5PnSS1ncNtvrSyaUf-4" vertex="1">
          <mxGeometry x="35.5" y="465.5" width="43" height="43" as="geometry" />
        </mxCell>
        <mxCell id="b1j5PnSS1ncNtvrSyaUf-23" value="SecretsManager&lt;div&gt;（DB認証情報の管理）&lt;/div&gt;" style="sketch=0;points=[[0,0,0],[0.25,0,0],[0.5,0,0],[0.75,0,0],[1,0,0],[0,1,0],[0.25,1,0],[0.5,1,0],[0.75,1,0],[1,1,0],[0,0.25,0],[0,0.5,0],[0,0.75,0],[1,0.25,0],[1,0.5,0],[1,0.75,0]];outlineConnect=0;fontColor=#232F3E;fillColor=#DD344C;strokeColor=#ffffff;dashed=0;verticalLabelPosition=bottom;verticalAlign=top;align=center;html=1;fontSize=12;fontStyle=0;aspect=fixed;shape=mxgraph.aws4.resourceIcon;resIcon=mxgraph.aws4.secrets_manager;" parent="b1j5PnSS1ncNtvrSyaUf-4" vertex="1">
          <mxGeometry x="749.5" y="796" width="42" height="42" as="geometry" />
        </mxCell>
        <mxCell id="b1j5PnSS1ncNtvrSyaUf-19" value="AppConfig" style="sketch=0;points=[[0,0,0],[0.25,0,0],[0.5,0,0],[0.75,0,0],[1,0,0],[0,1,0],[0.25,1,0],[0.5,1,0],[0.75,1,0],[1,1,0],[0,0.25,0],[0,0.5,0],[0,0.75,0],[1,0.25,0],[1,0.5,0],[1,0.75,0]];points=[[0,0,0],[0.25,0,0],[0.5,0,0],[0.75,0,0],[1,0,0],[0,1,0],[0.25,1,0],[0.5,1,0],[0.75,1,0],[1,1,0],[0,0.25,0],[0,0.5,0],[0,0.75,0],[1,0.25,0],[1,0.5,0],[1,0.75,0]];outlineConnect=0;fontColor=#232F3E;fillColor=#E7157B;strokeColor=#ffffff;dashed=0;verticalLabelPosition=bottom;verticalAlign=top;align=center;html=1;fontSize=12;fontStyle=0;aspect=fixed;shape=mxgraph.aws4.resourceIcon;resIcon=mxgraph.aws4.app_config;" parent="b1j5PnSS1ncNtvrSyaUf-4" vertex="1">
          <mxGeometry x="935.5" y="313.5" width="47" height="47" as="geometry" />
        </mxCell>
        <mxCell id="b1j5PnSS1ncNtvrSyaUf-20" value="SQS" style="sketch=0;points=[[0,0,0],[0.25,0,0],[0.5,0,0],[0.75,0,0],[1,0,0],[0,1,0],[0.25,1,0],[0.5,1,0],[0.75,1,0],[1,1,0],[0,0.25,0],[0,0.5,0],[0,0.75,0],[1,0.25,0],[1,0.5,0],[1,0.75,0]];outlineConnect=0;fontColor=#232F3E;fillColor=#E7157B;strokeColor=#ffffff;dashed=0;verticalLabelPosition=bottom;verticalAlign=top;align=center;html=1;fontSize=12;fontStyle=0;aspect=fixed;shape=mxgraph.aws4.resourceIcon;resIcon=mxgraph.aws4.sqs;" parent="b1j5PnSS1ncNtvrSyaUf-4" vertex="1">
          <mxGeometry x="935.5" y="386.5" width="47" height="47" as="geometry" />
        </mxCell>
        <mxCell id="b1j5PnSS1ncNtvrSyaUf-21" value="DynamoDB" style="sketch=0;points=[[0,0,0],[0.25,0,0],[0.5,0,0],[0.75,0,0],[1,0,0],[0,1,0],[0.25,1,0],[0.5,1,0],[0.75,1,0],[1,1,0],[0,0.25,0],[0,0.5,0],[0,0.75,0],[1,0.25,0],[1,0.5,0],[1,0.75,0]];outlineConnect=0;fontColor=#232F3E;fillColor=#C925D1;strokeColor=#ffffff;dashed=0;verticalLabelPosition=bottom;verticalAlign=top;align=center;html=1;fontSize=12;fontStyle=0;aspect=fixed;shape=mxgraph.aws4.resourceIcon;resIcon=mxgraph.aws4.dynamodb;" parent="b1j5PnSS1ncNtvrSyaUf-4" vertex="1">
          <mxGeometry x="935" y="462.25" width="47.5" height="47.5" as="geometry" />
        </mxCell>
        <mxCell id="b1j5PnSS1ncNtvrSyaUf-22" value="S3" style="sketch=0;points=[[0,0,0],[0.25,0,0],[0.5,0,0],[0.75,0,0],[1,0,0],[0,1,0],[0.25,1,0],[0.5,1,0],[0.75,1,0],[1,1,0],[0,0.25,0],[0,0.5,0],[0,0.75,0],[1,0.25,0],[1,0.5,0],[1,0.75,0]];outlineConnect=0;fontColor=#232F3E;fillColor=#7AA116;strokeColor=#ffffff;dashed=0;verticalLabelPosition=bottom;verticalAlign=top;align=center;html=1;fontSize=12;fontStyle=0;aspect=fixed;shape=mxgraph.aws4.resourceIcon;resIcon=mxgraph.aws4.s3;" parent="b1j5PnSS1ncNtvrSyaUf-4" vertex="1">
          <mxGeometry x="934" y="543" width="46" height="46" as="geometry" />
        </mxCell>
        <mxCell id="rqnWyKJm8Vc6jTgM_L1W-2" value="" style="group" parent="b1j5PnSS1ncNtvrSyaUf-4" vertex="1" connectable="0">
          <mxGeometry x="96.5" y="280" width="813.5" height="510" as="geometry" />
        </mxCell>
        <mxCell id="b1j5PnSS1ncNtvrSyaUf-2" value="VPC" style="points=[[0,0],[0.25,0],[0.5,0],[0.75,0],[1,0],[1,0.25],[1,0.5],[1,0.75],[1,1],[0.75,1],[0.5,1],[0.25,1],[0,1],[0,0.75],[0,0.5],[0,0.25]];outlineConnect=0;gradientColor=none;html=1;whiteSpace=wrap;fontSize=12;fontStyle=0;container=0;pointerEvents=0;collapsible=0;recursiveResize=0;shape=mxgraph.aws4.group;grIcon=mxgraph.aws4.group_vpc2;strokeColor=#8C4FFF;fillColor=none;verticalAlign=top;align=left;spacingLeft=30;fontColor=#AAB7B8;dashed=0;" parent="rqnWyKJm8Vc6jTgM_L1W-2" vertex="1">
          <mxGeometry width="813.5" height="510" as="geometry" />
        </mxCell>
        <mxCell id="b1j5PnSS1ncNtvrSyaUf-6" value="Public subnet" style="points=[[0,0],[0.25,0],[0.5,0],[0.75,0],[1,0],[1,0.25],[1,0.5],[1,0.75],[1,1],[0.75,1],[0.5,1],[0.25,1],[0,1],[0,0.75],[0,0.5],[0,0.25]];outlineConnect=0;gradientColor=none;html=1;whiteSpace=wrap;fontSize=12;fontStyle=0;container=1;pointerEvents=0;collapsible=0;recursiveResize=0;shape=mxgraph.aws4.group;grIcon=mxgraph.aws4.group_security_group;grStroke=0;strokeColor=#7AA116;fillColor=#F2F6E8;verticalAlign=top;align=left;spacingLeft=30;fontColor=#248814;dashed=0;" parent="rqnWyKJm8Vc6jTgM_L1W-2" vertex="1">
          <mxGeometry x="39" y="31" width="125.5" height="449" as="geometry" />
        </mxCell>
        <mxCell id="b1j5PnSS1ncNtvrSyaUf-9" value="EC2&lt;br&gt;(Bastion)" style="sketch=0;points=[[0,0,0],[0.25,0,0],[0.5,0,0],[0.75,0,0],[1,0,0],[0,1,0],[0.25,1,0],[0.5,1,0],[0.75,1,0],[1,1,0],[0,0.25,0],[0,0.5,0],[0,0.75,0],[1,0.25,0],[1,0.5,0],[1,0.75,0]];outlineConnect=0;fontColor=#232F3E;fillColor=#ED7100;strokeColor=#ffffff;dashed=0;verticalLabelPosition=bottom;verticalAlign=top;align=center;html=1;fontSize=12;fontStyle=0;aspect=fixed;shape=mxgraph.aws4.resourceIcon;resIcon=mxgraph.aws4.ec2;" parent="b1j5PnSS1ncNtvrSyaUf-6" vertex="1">
          <mxGeometry x="41" y="155.5" width="43.5" height="43.5" as="geometry" />
        </mxCell>
        <mxCell id="b1j5PnSS1ncNtvrSyaUf-7" value="Private subnet" style="points=[[0,0],[0.25,0],[0.5,0],[0.75,0],[1,0],[1,0.25],[1,0.5],[1,0.75],[1,1],[0.75,1],[0.5,1],[0.25,1],[0,1],[0,0.75],[0,0.5],[0,0.25]];outlineConnect=0;gradientColor=none;html=1;whiteSpace=wrap;fontSize=12;fontStyle=0;container=1;pointerEvents=0;collapsible=0;recursiveResize=0;shape=mxgraph.aws4.group;grIcon=mxgraph.aws4.group_security_group;grStroke=0;strokeColor=#00A4A6;fillColor=#E6F6F7;verticalAlign=top;align=left;spacingLeft=30;fontColor=#147EBA;dashed=0;" parent="rqnWyKJm8Vc6jTgM_L1W-2" vertex="1">
          <mxGeometry x="179" y="31" width="455.5" height="449" as="geometry" />
        </mxCell>
        <mxCell id="b1j5PnSS1ncNtvrSyaUf-11" value="VPC Endpoint&lt;br&gt;(Gateway)" style="sketch=0;outlineConnect=0;fontColor=#232F3E;gradientColor=none;fillColor=#8C4FFF;strokeColor=none;dashed=0;verticalLabelPosition=bottom;verticalAlign=top;align=center;html=1;fontSize=12;fontStyle=0;aspect=fixed;pointerEvents=1;shape=mxgraph.aws4.endpoints;" parent="b1j5PnSS1ncNtvrSyaUf-7" vertex="1">
          <mxGeometry x="400" y="238" width="36" height="36" as="geometry" />
        </mxCell>
        <mxCell id="b1j5PnSS1ncNtvrSyaUf-12" value="VPC Endpoint&lt;br&gt;(Gateway)" style="sketch=0;outlineConnect=0;fontColor=#232F3E;gradientColor=none;fillColor=#8C4FFF;strokeColor=none;dashed=0;verticalLabelPosition=bottom;verticalAlign=top;align=center;html=1;fontSize=12;fontStyle=0;aspect=fixed;pointerEvents=1;shape=mxgraph.aws4.endpoints;" parent="b1j5PnSS1ncNtvrSyaUf-7" vertex="1">
          <mxGeometry x="400" y="158" width="36" height="36" as="geometry" />
        </mxCell>
        <mxCell id="b1j5PnSS1ncNtvrSyaUf-13" value="VPC Endpoint&lt;br&gt;(Interface)" style="sketch=0;outlineConnect=0;fontColor=#232F3E;gradientColor=none;fillColor=#8C4FFF;strokeColor=none;dashed=0;verticalLabelPosition=bottom;verticalAlign=top;align=center;html=1;fontSize=12;fontStyle=0;aspect=fixed;pointerEvents=1;shape=mxgraph.aws4.endpoints;" parent="b1j5PnSS1ncNtvrSyaUf-7" vertex="1">
          <mxGeometry x="400" y="9" width="36" height="36" as="geometry" />
        </mxCell>
        <mxCell id="b1j5PnSS1ncNtvrSyaUf-14" value="VPC Endpoint&lt;br&gt;(Interface)" style="sketch=0;outlineConnect=0;fontColor=#232F3E;gradientColor=none;fillColor=#8C4FFF;strokeColor=none;dashed=0;verticalLabelPosition=bottom;verticalAlign=top;align=center;html=1;fontSize=12;fontStyle=0;aspect=fixed;pointerEvents=1;shape=mxgraph.aws4.endpoints;" parent="b1j5PnSS1ncNtvrSyaUf-7" vertex="1">
          <mxGeometry x="400" y="82" width="36" height="36" as="geometry" />
        </mxCell>
        <mxCell id="tGi2XLsGErRzi48nDTFP-32" value="踏み台&lt;div&gt;接続&lt;/div&gt;" style="edgeStyle=orthogonalEdgeStyle;rounded=0;orthogonalLoop=1;jettySize=auto;html=1;startArrow=none;entryX=0;entryY=0.5;entryDx=0;entryDy=0;entryPerimeter=0;exitX=1;exitY=0.5;exitDx=0;exitDy=0;exitPerimeter=0;" parent="rqnWyKJm8Vc6jTgM_L1W-2" source="b1j5PnSS1ncNtvrSyaUf-18" target="b1j5PnSS1ncNtvrSyaUf-9" edge="1">
          <mxGeometry relative="1" as="geometry">
            <mxPoint x="79.5" y="196" as="targetPoint" />
            <mxPoint x="-23" y="197.4848484848485" as="sourcePoint" />
          </mxGeometry>
        </mxCell>
        <mxCell id="b1j5PnSS1ncNtvrSyaUf-10" value="VPC Endpoint&lt;br&gt;(Interface)" style="sketch=0;outlineConnect=0;fontColor=#232F3E;gradientColor=none;fillColor=#8C4FFF;strokeColor=none;dashed=0;verticalLabelPosition=bottom;verticalAlign=top;align=center;html=1;fontSize=12;fontStyle=0;aspect=fixed;pointerEvents=1;shape=mxgraph.aws4.endpoints;" parent="rqnWyKJm8Vc6jTgM_L1W-2" vertex="1">
          <mxGeometry x="360.5" y="189.5" width="36" height="36" as="geometry" />
        </mxCell>
        <mxCell id="rqnWyKJm8Vc6jTgM_L1W-0" style="edgeStyle=orthogonalEdgeStyle;rounded=0;orthogonalLoop=1;jettySize=auto;html=1;" parent="rqnWyKJm8Vc6jTgM_L1W-2" source="b1j5PnSS1ncNtvrSyaUf-17" target="b1j5PnSS1ncNtvrSyaUf-10" edge="1">
          <mxGeometry relative="1" as="geometry">
            <Array as="points">
              <mxPoint x="239" y="198" />
            </Array>
          </mxGeometry>
        </mxCell>
        <mxCell id="b1j5PnSS1ncNtvrSyaUf-17" value="Hyperplane ENI" style="sketch=0;outlineConnect=0;fontColor=#232F3E;gradientColor=none;fillColor=#8C4FFF;strokeColor=none;dashed=0;verticalLabelPosition=bottom;verticalAlign=top;align=center;html=1;fontSize=12;fontStyle=0;aspect=fixed;pointerEvents=1;shape=mxgraph.aws4.elastic_network_interface;" parent="rqnWyKJm8Vc6jTgM_L1W-2" vertex="1">
          <mxGeometry x="220.5" y="61" width="36" height="36" as="geometry" />
        </mxCell>
        <mxCell id="tGi2XLsGErRzi48nDTFP-10" value="ファイル&lt;br&gt;アクセス" style="edgeStyle=orthogonalEdgeStyle;rounded=0;orthogonalLoop=1;jettySize=auto;html=1;" parent="rqnWyKJm8Vc6jTgM_L1W-2" source="b1j5PnSS1ncNtvrSyaUf-17" target="b1j5PnSS1ncNtvrSyaUf-11" edge="1">
          <mxGeometry x="0.7285" y="-16" relative="1" as="geometry">
            <Array as="points">
              <mxPoint x="490" y="79" />
              <mxPoint x="490" y="285" />
            </Array>
            <mxPoint as="offset" />
            <mxPoint x="441.49957957411993" y="85.51515151515162" as="sourcePoint" />
            <mxPoint x="574.5" y="314.0434782608695" as="targetPoint" />
          </mxGeometry>
        </mxCell>
        <mxCell id="tGi2XLsGErRzi48nDTFP-8" value="メッセージ&lt;br&gt;送信・取得" style="edgeStyle=orthogonalEdgeStyle;rounded=0;orthogonalLoop=1;jettySize=auto;html=1;" parent="rqnWyKJm8Vc6jTgM_L1W-2" source="b1j5PnSS1ncNtvrSyaUf-17" target="b1j5PnSS1ncNtvrSyaUf-14" edge="1">
          <mxGeometry x="0.7376" y="-9" relative="1" as="geometry">
            <Array as="points">
              <mxPoint x="490" y="78" />
              <mxPoint x="490" y="129" />
            </Array>
            <mxPoint as="offset" />
            <mxPoint x="445.99957957411993" y="57.515151515151615" as="sourcePoint" />
            <mxPoint x="580" y="129" as="targetPoint" />
          </mxGeometry>
        </mxCell>
        <mxCell id="tGi2XLsGErRzi48nDTFP-9" value="設定取得" style="edgeStyle=orthogonalEdgeStyle;rounded=0;orthogonalLoop=1;jettySize=auto;html=1;" parent="rqnWyKJm8Vc6jTgM_L1W-2" source="b1j5PnSS1ncNtvrSyaUf-17" target="b1j5PnSS1ncNtvrSyaUf-13" edge="1">
          <mxGeometry x="0.7729" y="-10" relative="1" as="geometry">
            <Array as="points">
              <mxPoint x="490" y="79" />
              <mxPoint x="490" y="58" />
            </Array>
            <mxPoint as="offset" />
            <mxPoint x="445.99957957411993" y="57.515151515151615" as="sourcePoint" />
            <mxPoint x="579" y="57.52173913043475" as="targetPoint" />
          </mxGeometry>
        </mxCell>
        <mxCell id="tGi2XLsGErRzi48nDTFP-12" value="DynamoDB&lt;br&gt;アクセス" style="edgeStyle=orthogonalEdgeStyle;rounded=0;orthogonalLoop=1;jettySize=auto;html=1;" parent="rqnWyKJm8Vc6jTgM_L1W-2" source="b1j5PnSS1ncNtvrSyaUf-17" target="b1j5PnSS1ncNtvrSyaUf-12" edge="1">
          <mxGeometry x="0.6338" y="-19" relative="1" as="geometry">
            <Array as="points">
              <mxPoint x="490" y="79" />
              <mxPoint x="490" y="209" />
            </Array>
            <mxPoint as="offset" />
            <mxPoint x="445.99957957411993" y="57.515151515151615" as="sourcePoint" />
            <mxPoint x="580" y="201.9565217391305" as="targetPoint" />
          </mxGeometry>
        </mxCell>
        <mxCell id="tGi2XLsGErRzi48nDTFP-21" value="&lt;div&gt;バックエンド&lt;br&gt;&lt;/div&gt;REST API&lt;div&gt;呼び出し&lt;/div&gt;&lt;div&gt;&lt;/div&gt;" style="edgeStyle=orthogonalEdgeStyle;rounded=0;orthogonalLoop=1;jettySize=auto;html=1;exitX=1;exitY=0.5;exitDx=0;exitDy=0;exitPerimeter=0;" parent="rqnWyKJm8Vc6jTgM_L1W-2" source="b1j5PnSS1ncNtvrSyaUf-9" target="b1j5PnSS1ncNtvrSyaUf-10" edge="1">
          <mxGeometry x="0.5753" y="10" relative="1" as="geometry">
            <mxPoint x="123.5" y="207" as="sourcePoint" />
            <mxPoint x="219" y="208.25" as="targetPoint" />
            <mxPoint as="offset" />
          </mxGeometry>
        </mxCell>
        <mxCell id="rqnWyKJm8Vc6jTgM_L1W-1" value="" style="group" parent="rqnWyKJm8Vc6jTgM_L1W-2" vertex="1" connectable="0">
          <mxGeometry x="648" y="330" width="160" height="151" as="geometry" />
        </mxCell>
        <mxCell id="b1j5PnSS1ncNtvrSyaUf-8" value="Private subnet" style="points=[[0,0],[0.25,0],[0.5,0],[0.75,0],[1,0],[1,0.25],[1,0.5],[1,0.75],[1,1],[0.75,1],[0.5,1],[0.25,1],[0,1],[0,0.75],[0,0.5],[0,0.25]];outlineConnect=0;gradientColor=none;html=1;whiteSpace=wrap;fontSize=12;fontStyle=0;container=0;pointerEvents=0;collapsible=0;recursiveResize=0;shape=mxgraph.aws4.group;grIcon=mxgraph.aws4.group_security_group;grStroke=0;strokeColor=#00A4A6;fillColor=#E6F6F7;verticalAlign=top;align=left;spacingLeft=30;fontColor=#147EBA;dashed=0;" parent="rqnWyKJm8Vc6jTgM_L1W-1" vertex="1">
          <mxGeometry width="146.5" height="151" as="geometry" />
        </mxCell>
        <mxCell id="b1j5PnSS1ncNtvrSyaUf-26" value="Aurora Serverless v2&lt;br&gt;for PostgreSQL" style="sketch=0;points=[[0,0,0],[0.25,0,0],[0.5,0,0],[0.75,0,0],[1,0,0],[0,1,0],[0.25,1,0],[0.5,1,0],[0.75,1,0],[1,1,0],[0,0.25,0],[0,0.5,0],[0,0.75,0],[1,0.25,0],[1,0.5,0],[1,0.75,0]];outlineConnect=0;fontColor=#232F3E;fillColor=#C925D1;strokeColor=#ffffff;dashed=0;verticalLabelPosition=bottom;verticalAlign=top;align=center;html=1;fontSize=12;fontStyle=0;aspect=fixed;shape=mxgraph.aws4.resourceIcon;resIcon=mxgraph.aws4.aurora;" parent="rqnWyKJm8Vc6jTgM_L1W-1" vertex="1">
          <mxGeometry x="82" y="97.33333333333333" width="47" height="47" as="geometry" />
        </mxCell>
        <mxCell id="b1j5PnSS1ncNtvrSyaUf-27" value="" style="sketch=0;outlineConnect=0;fontColor=#232F3E;gradientColor=none;fillColor=#C925D1;strokeColor=none;dashed=0;verticalLabelPosition=bottom;verticalAlign=top;align=center;html=1;fontSize=12;fontStyle=0;aspect=fixed;pointerEvents=1;shape=mxgraph.aws4.rds_proxy_alt;" parent="rqnWyKJm8Vc6jTgM_L1W-1" vertex="1">
          <mxGeometry x="9.5" y="104.32892473118278" width="33" height="33" as="geometry" />
        </mxCell>
        <mxCell id="b1j5PnSS1ncNtvrSyaUf-28" style="edgeStyle=orthogonalEdgeStyle;rounded=0;orthogonalLoop=1;jettySize=auto;html=1;entryX=0;entryY=0.5;entryDx=0;entryDy=0;entryPerimeter=0;" parent="rqnWyKJm8Vc6jTgM_L1W-1" source="b1j5PnSS1ncNtvrSyaUf-27" target="b1j5PnSS1ncNtvrSyaUf-26" edge="1">
          <mxGeometry relative="1" as="geometry" />
        </mxCell>
        <mxCell id="bKkXY9Oo-V_ckAm1wtBt-0" value="DocumentDB" style="sketch=0;points=[[0,0,0],[0.25,0,0],[0.5,0,0],[0.75,0,0],[1,0,0],[0,1,0],[0.25,1,0],[0.5,1,0],[0.75,1,0],[1,1,0],[0,0.25,0],[0,0.5,0],[0,0.75,0],[1,0.25,0],[1,0.5,0],[1,0.75,0]];outlineConnect=0;fontColor=#232F3E;fillColor=#C925D1;strokeColor=#ffffff;dashed=0;verticalLabelPosition=bottom;verticalAlign=top;align=center;html=1;fontSize=12;fontStyle=0;aspect=fixed;shape=mxgraph.aws4.resourceIcon;resIcon=mxgraph.aws4.documentdb_with_mongodb_compatibility;" vertex="1" parent="rqnWyKJm8Vc6jTgM_L1W-1">
          <mxGeometry x="81" y="23" width="48" height="48" as="geometry" />
        </mxCell>
        <mxCell id="tGi2XLsGErRzi48nDTFP-41" value="RDBアクセス" style="edgeStyle=orthogonalEdgeStyle;rounded=0;orthogonalLoop=1;jettySize=auto;html=1;endArrow=classic;endFill=1;" parent="rqnWyKJm8Vc6jTgM_L1W-2" source="b1j5PnSS1ncNtvrSyaUf-17" target="b1j5PnSS1ncNtvrSyaUf-27" edge="1">
          <mxGeometry x="0.5134" y="-14" relative="1" as="geometry">
            <mxPoint x="422.9848484848485" y="100" as="sourcePoint" />
            <mxPoint x="656.5" y="380.5" as="targetPoint" />
            <Array as="points">
              <mxPoint x="239" y="451" />
            </Array>
            <mxPoint as="offset" />
          </mxGeometry>
        </mxCell>
        <mxCell id="rqnWyKJm8Vc6jTgM_L1W-3" value="NAT Gateway&lt;div&gt;※VPC内Lambdaから&lt;/div&gt;&lt;div&gt;外部接続用&lt;/div&gt;" style="sketch=0;outlineConnect=0;fontColor=#232F3E;gradientColor=none;fillColor=#8C4FFF;strokeColor=none;dashed=0;verticalLabelPosition=bottom;verticalAlign=top;align=center;html=1;fontSize=12;fontStyle=0;aspect=fixed;pointerEvents=1;shape=mxgraph.aws4.nat_gateway;" parent="rqnWyKJm8Vc6jTgM_L1W-2" vertex="1">
          <mxGeometry x="80.25" y="298" width="43" height="43" as="geometry" />
        </mxCell>
        <mxCell id="bKkXY9Oo-V_ckAm1wtBt-1" value="DocumentDBアクセス" style="edgeStyle=orthogonalEdgeStyle;rounded=0;orthogonalLoop=1;jettySize=auto;html=1;entryX=0;entryY=0.5;entryDx=0;entryDy=0;entryPerimeter=0;" edge="1" parent="rqnWyKJm8Vc6jTgM_L1W-2" source="b1j5PnSS1ncNtvrSyaUf-17" target="bKkXY9Oo-V_ckAm1wtBt-0">
          <mxGeometry x="0.3277" y="-11" relative="1" as="geometry">
            <Array as="points">
              <mxPoint x="239" y="377" />
            </Array>
            <mxPoint x="1" as="offset" />
          </mxGeometry>
        </mxCell>
        <mxCell id="tGi2XLsGErRzi48nDTFP-39" style="edgeStyle=orthogonalEdgeStyle;rounded=0;orthogonalLoop=1;jettySize=auto;html=1;entryX=0.5;entryY=0;entryDx=0;entryDy=0;entryPerimeter=0;" parent="b1j5PnSS1ncNtvrSyaUf-4" source="b1j5PnSS1ncNtvrSyaUf-27" target="b1j5PnSS1ncNtvrSyaUf-23" edge="1">
          <mxGeometry relative="1" as="geometry">
            <mxPoint x="872.5" y="1095" as="targetPoint" />
            <mxPoint x="867" y="1035" as="sourcePoint" />
          </mxGeometry>
        </mxCell>
        <mxCell id="tGi2XLsGErRzi48nDTFP-53" style="edgeStyle=orthogonalEdgeStyle;rounded=0;orthogonalLoop=1;jettySize=auto;html=1;dashed=1;" parent="b1j5PnSS1ncNtvrSyaUf-4" source="b1j5PnSS1ncNtvrSyaUf-11" target="b1j5PnSS1ncNtvrSyaUf-22" edge="1">
          <mxGeometry relative="1" as="geometry">
            <mxPoint x="707" y="593.0434782608695" as="sourcePoint" />
            <mxPoint x="931" y="593.5" as="targetPoint" />
          </mxGeometry>
        </mxCell>
        <mxCell id="tGi2XLsGErRzi48nDTFP-51" style="edgeStyle=orthogonalEdgeStyle;rounded=0;orthogonalLoop=1;jettySize=auto;html=1;entryX=0;entryY=0.5;entryDx=0;entryDy=0;entryPerimeter=0;dashed=1;" parent="b1j5PnSS1ncNtvrSyaUf-4" source="b1j5PnSS1ncNtvrSyaUf-13" target="b1j5PnSS1ncNtvrSyaUf-19" edge="1">
          <mxGeometry relative="1" as="geometry">
            <mxPoint x="707" y="364.0000000000002" as="sourcePoint" />
            <mxPoint x="912" y="364" as="targetPoint" />
          </mxGeometry>
        </mxCell>
        <mxCell id="tGi2XLsGErRzi48nDTFP-50" style="edgeStyle=orthogonalEdgeStyle;rounded=0;orthogonalLoop=1;jettySize=auto;html=1;entryX=0;entryY=0.5;entryDx=0;entryDy=0;entryPerimeter=0;dashed=1;" parent="b1j5PnSS1ncNtvrSyaUf-4" source="b1j5PnSS1ncNtvrSyaUf-14" target="b1j5PnSS1ncNtvrSyaUf-20" edge="1">
          <mxGeometry relative="1" as="geometry">
            <mxPoint x="708" y="436" as="sourcePoint" />
            <mxPoint x="931" y="438" as="targetPoint" />
          </mxGeometry>
        </mxCell>
        <mxCell id="tGi2XLsGErRzi48nDTFP-30" style="edgeStyle=orthogonalEdgeStyle;rounded=0;orthogonalLoop=1;jettySize=auto;html=1;entryX=0;entryY=0.5;entryDx=0;entryDy=0;entryPerimeter=0;dashed=1;" parent="b1j5PnSS1ncNtvrSyaUf-4" source="b1j5PnSS1ncNtvrSyaUf-12" target="b1j5PnSS1ncNtvrSyaUf-21" edge="1">
          <mxGeometry relative="1" as="geometry">
            <mxPoint x="708" y="509.25" as="sourcePoint" />
            <mxPoint x="930" y="514.25" as="targetPoint" />
          </mxGeometry>
        </mxCell>
        <mxCell id="6SpgYArjjg1QMcq7gyZZ-0" value="&lt;div&gt;フロントエンド&lt;/div&gt;API Gateway&lt;div&gt;(Public API)&lt;/div&gt;" style="sketch=0;points=[[0,0,0],[0.25,0,0],[0.5,0,0],[0.75,0,0],[1,0,0],[0,1,0],[0.25,1,0],[0.5,1,0],[0.75,1,0],[1,1,0],[0,0.25,0],[0,0.5,0],[0,0.75,0],[1,0.25,0],[1,0.5,0],[1,0.75,0]];outlineConnect=0;fontColor=#232F3E;fillColor=#8C4FFF;strokeColor=#ffffff;dashed=0;verticalLabelPosition=bottom;verticalAlign=top;align=center;html=1;fontSize=12;fontStyle=0;aspect=fixed;shape=mxgraph.aws4.resourceIcon;resIcon=mxgraph.aws4.api_gateway;" parent="b1j5PnSS1ncNtvrSyaUf-4" vertex="1">
          <mxGeometry x="126.5" y="157" width="72" height="72" as="geometry" />
        </mxCell>
        <mxCell id="bKkXY9Oo-V_ckAm1wtBt-3" style="edgeStyle=orthogonalEdgeStyle;rounded=0;orthogonalLoop=1;jettySize=auto;html=1;entryX=1;entryY=0.5;entryDx=0;entryDy=0;entryPerimeter=0;exitX=0.5;exitY=1;exitDx=0;exitDy=0;exitPerimeter=0;dashed=1;endArrow=none;endFill=0;" edge="1" parent="b1j5PnSS1ncNtvrSyaUf-4" source="b1j5PnSS1ncNtvrSyaUf-26" target="b1j5PnSS1ncNtvrSyaUf-23">
          <mxGeometry relative="1" as="geometry" />
        </mxCell>
        <mxCell id="bKkXY9Oo-V_ckAm1wtBt-4" style="edgeStyle=orthogonalEdgeStyle;rounded=0;orthogonalLoop=1;jettySize=auto;html=1;entryX=1;entryY=0.5;entryDx=0;entryDy=0;entryPerimeter=0;dashed=1;endArrow=none;endFill=0;" edge="1" parent="b1j5PnSS1ncNtvrSyaUf-4" source="bKkXY9Oo-V_ckAm1wtBt-0" target="b1j5PnSS1ncNtvrSyaUf-23">
          <mxGeometry relative="1" as="geometry">
            <Array as="points">
              <mxPoint x="947" y="657" />
              <mxPoint x="947" y="817" />
            </Array>
          </mxGeometry>
        </mxCell>
        <mxCell id="tGi2XLsGErRzi48nDTFP-4" value="" style="edgeStyle=orthogonalEdgeStyle;rounded=0;orthogonalLoop=1;jettySize=auto;html=1;entryX=0;entryY=0.5;entryDx=0;entryDy=0;entryPerimeter=0;dashed=1;exitX=0.25;exitY=0;exitDx=0;exitDy=0;exitPerimeter=0;" parent="tGi2XLsGErRzi48nDTFP-1" source="6SpgYArjjg1QMcq7gyZZ-2" target="b1j5PnSS1ncNtvrSyaUf-0" edge="1">
          <mxGeometry relative="1" as="geometry">
            <mxPoint x="645.0588235294117" y="300.5" as="sourcePoint" />
            <mxPoint x="1121" y="108" as="targetPoint" />
          </mxGeometry>
        </mxCell>
        <mxCell id="tGi2XLsGErRzi48nDTFP-24" value="" style="edgeStyle=orthogonalEdgeStyle;rounded=0;orthogonalLoop=1;jettySize=auto;html=1;dashed=1;" parent="tGi2XLsGErRzi48nDTFP-1" source="b1j5PnSS1ncNtvrSyaUf-10" target="6SpgYArjjg1QMcq7gyZZ-2" edge="1">
          <mxGeometry x="-0.3278" relative="1" as="geometry">
            <mxPoint x="556.0000000000002" y="549.304347826087" as="sourcePoint" />
            <mxPoint x="609.25" y="93.75" as="targetPoint" />
            <mxPoint as="offset" />
          </mxGeometry>
        </mxCell>
        <mxCell id="tGi2XLsGErRzi48nDTFP-27" value="Lambda&lt;br&gt;関数実行" style="edgeStyle=orthogonalEdgeStyle;rounded=0;orthogonalLoop=1;jettySize=auto;html=1;entryX=0;entryY=0.5;entryDx=0;entryDy=0;entryPerimeter=0;exitX=1;exitY=0.5;exitDx=0;exitDy=0;exitPerimeter=0;" parent="tGi2XLsGErRzi48nDTFP-1" source="6SpgYArjjg1QMcq7gyZZ-2" target="6SpgYArjjg1QMcq7gyZZ-5" edge="1">
          <mxGeometry x="0.0087" relative="1" as="geometry">
            <mxPoint x="735" y="264.5000000000002" as="sourcePoint" />
            <mxPoint x="815" y="264.75" as="targetPoint" />
            <mxPoint as="offset" />
          </mxGeometry>
        </mxCell>
        <mxCell id="tGi2XLsGErRzi48nDTFP-37" value="" style="edgeStyle=orthogonalEdgeStyle;rounded=0;orthogonalLoop=1;jettySize=auto;html=1;entryX=0;entryY=0.5;entryDx=0;entryDy=0;entryPerimeter=0;dashed=1;exitX=0.25;exitY=0;exitDx=0;exitDy=0;exitPerimeter=0;" parent="tGi2XLsGErRzi48nDTFP-1" source="6SpgYArjjg1QMcq7gyZZ-5" target="b1j5PnSS1ncNtvrSyaUf-0" edge="1">
          <mxGeometry relative="1" as="geometry">
            <mxPoint x="850" y="228" as="sourcePoint" />
            <mxPoint x="1121" y="108" as="targetPoint" />
          </mxGeometry>
        </mxCell>
        <mxCell id="tGi2XLsGErRzi48nDTFP-42" style="edgeStyle=orthogonalEdgeStyle;rounded=0;orthogonalLoop=1;jettySize=auto;html=1;exitX=0.5;exitY=1;exitDx=0;exitDy=0;exitPerimeter=0;" parent="tGi2XLsGErRzi48nDTFP-1" source="6SpgYArjjg1QMcq7gyZZ-5" target="b1j5PnSS1ncNtvrSyaUf-17" edge="1">
          <mxGeometry relative="1" as="geometry">
            <mxPoint x="728.4848484848485" y="376" as="targetPoint" />
            <mxPoint x="790.5000000000005" y="779" as="sourcePoint" />
            <Array as="points">
              <mxPoint x="862" y="370" />
              <mxPoint x="538" y="370" />
            </Array>
          </mxGeometry>
        </mxCell>
        <mxCell id="tGi2XLsGErRzi48nDTFP-46" value="" style="edgeStyle=orthogonalEdgeStyle;rounded=0;orthogonalLoop=1;jettySize=auto;html=1;dashed=1;entryX=0;entryY=0.5;entryDx=0;entryDy=0;entryPerimeter=0;exitX=0.75;exitY=0;exitDx=0;exitDy=0;exitPerimeter=0;" parent="tGi2XLsGErRzi48nDTFP-1" source="6SpgYArjjg1QMcq7gyZZ-5" target="6SpgYArjjg1QMcq7gyZZ-24" edge="1">
          <mxGeometry x="0.4149" y="-19" relative="1" as="geometry">
            <mxPoint x="1120.9999999999998" y="182" as="targetPoint" />
            <mxPoint as="offset" />
            <mxPoint x="841" y="304" as="sourcePoint" />
          </mxGeometry>
        </mxCell>
        <mxCell id="tGi2XLsGErRzi48nDTFP-47" value="" style="edgeStyle=orthogonalEdgeStyle;rounded=0;orthogonalLoop=1;jettySize=auto;html=1;entryX=0;entryY=0.5;entryDx=0;entryDy=0;entryPerimeter=0;dashed=1;exitX=0.75;exitY=0;exitDx=0;exitDy=0;exitPerimeter=0;" parent="tGi2XLsGErRzi48nDTFP-1" source="6SpgYArjjg1QMcq7gyZZ-2" target="6SpgYArjjg1QMcq7gyZZ-24" edge="1">
          <mxGeometry relative="1" as="geometry">
            <mxPoint x="627.125" y="300.5" as="sourcePoint" />
            <mxPoint x="1120.9999999999998" y="182" as="targetPoint" />
          </mxGeometry>
        </mxCell>
        <mxCell id="6SpgYArjjg1QMcq7gyZZ-2" value="バックエンド&lt;div&gt;API Gateway&lt;div&gt;(Private API)&lt;/div&gt;&lt;/div&gt;" style="sketch=0;points=[[0,0,0],[0.25,0,0],[0.5,0,0],[0.75,0,0],[1,0,0],[0,1,0],[0.25,1,0],[0.5,1,0],[0.75,1,0],[1,1,0],[0,0.25,0],[0,0.5,0],[0,0.75,0],[1,0.25,0],[1,0.5,0],[1,0.75,0]];outlineConnect=0;fontColor=#232F3E;fillColor=#8C4FFF;strokeColor=#ffffff;dashed=0;verticalLabelPosition=bottom;verticalAlign=top;align=center;html=1;fontSize=12;fontStyle=0;aspect=fixed;shape=mxgraph.aws4.resourceIcon;resIcon=mxgraph.aws4.api_gateway;" parent="tGi2XLsGErRzi48nDTFP-1" vertex="1">
          <mxGeometry x="644" y="229" width="69" height="69" as="geometry" />
        </mxCell>
        <mxCell id="6SpgYArjjg1QMcq7gyZZ-12" style="edgeStyle=orthogonalEdgeStyle;rounded=0;orthogonalLoop=1;jettySize=auto;html=1;exitX=0.5;exitY=1;exitDx=0;exitDy=0;exitPerimeter=0;" parent="tGi2XLsGErRzi48nDTFP-1" source="6SpgYArjjg1QMcq7gyZZ-8" target="b1j5PnSS1ncNtvrSyaUf-17" edge="1">
          <mxGeometry relative="1" as="geometry">
            <mxPoint x="515.5000000000005" y="780.4999999999998" as="sourcePoint" />
            <mxPoint x="538.0000000000002" y="430.9999999999998" as="targetPoint" />
          </mxGeometry>
        </mxCell>
        <mxCell id="6SpgYArjjg1QMcq7gyZZ-9" value="Lambda&lt;br&gt;関数実行" style="edgeStyle=orthogonalEdgeStyle;rounded=0;orthogonalLoop=1;jettySize=auto;html=1;entryX=0;entryY=0.5;entryDx=0;entryDy=0;entryPerimeter=0;exitX=1;exitY=0.5;exitDx=0;exitDy=0;exitPerimeter=0;" parent="tGi2XLsGErRzi48nDTFP-1" source="6SpgYArjjg1QMcq7gyZZ-0" target="6SpgYArjjg1QMcq7gyZZ-8" edge="1">
          <mxGeometry x="0.0087" relative="1" as="geometry">
            <mxPoint x="390" y="274" as="sourcePoint" />
            <mxPoint x="474" y="266.25" as="targetPoint" />
            <mxPoint as="offset" />
          </mxGeometry>
        </mxCell>
        <mxCell id="6SpgYArjjg1QMcq7gyZZ-15" value="分散&lt;br style=&quot;border-color: var(--border-color);&quot;&gt;トレーシング" style="edgeStyle=orthogonalEdgeStyle;rounded=0;orthogonalLoop=1;jettySize=auto;html=1;entryX=0;entryY=0.5;entryDx=0;entryDy=0;entryPerimeter=0;dashed=1;exitX=0.5;exitY=0;exitDx=0;exitDy=0;exitPerimeter=0;" parent="tGi2XLsGErRzi48nDTFP-1" source="6SpgYArjjg1QMcq7gyZZ-0" target="6SpgYArjjg1QMcq7gyZZ-24" edge="1">
          <mxGeometry x="0.8219" y="16" relative="1" as="geometry">
            <mxPoint as="offset" />
            <mxPoint x="355.25" y="354" as="sourcePoint" />
            <mxPoint x="1120.9999999999998" y="182" as="targetPoint" />
          </mxGeometry>
        </mxCell>
        <mxCell id="6SpgYArjjg1QMcq7gyZZ-16" value="ログ出力" style="edgeStyle=orthogonalEdgeStyle;rounded=0;orthogonalLoop=1;jettySize=auto;html=1;entryX=0;entryY=0.5;entryDx=0;entryDy=0;entryPerimeter=0;dashed=1;exitX=0.25;exitY=0;exitDx=0;exitDy=0;exitPerimeter=0;" parent="tGi2XLsGErRzi48nDTFP-1" source="6SpgYArjjg1QMcq7gyZZ-8" target="b1j5PnSS1ncNtvrSyaUf-0" edge="1">
          <mxGeometry x="0.7717" relative="1" as="geometry">
            <mxPoint x="386" y="305" as="sourcePoint" />
            <mxPoint x="1121" y="108" as="targetPoint" />
            <mxPoint as="offset" />
          </mxGeometry>
        </mxCell>
        <mxCell id="6SpgYArjjg1QMcq7gyZZ-17" value="" style="edgeStyle=orthogonalEdgeStyle;rounded=0;orthogonalLoop=1;jettySize=auto;html=1;entryX=0;entryY=0.5;entryDx=0;entryDy=0;entryPerimeter=0;dashed=1;exitX=0.75;exitY=0;exitDx=0;exitDy=0;exitPerimeter=0;" parent="tGi2XLsGErRzi48nDTFP-1" source="6SpgYArjjg1QMcq7gyZZ-8" target="6SpgYArjjg1QMcq7gyZZ-24" edge="1">
          <mxGeometry relative="1" as="geometry">
            <mxPoint x="536" y="311" as="sourcePoint" />
            <mxPoint x="1120.9999999999998" y="182" as="targetPoint" />
          </mxGeometry>
        </mxCell>
        <mxCell id="tGi2XLsGErRzi48nDTFP-31" value="Terminal" style="sketch=0;outlineConnect=0;fontColor=#232F3E;gradientColor=none;fillColor=#232F3D;strokeColor=none;dashed=0;verticalLabelPosition=bottom;verticalAlign=top;align=center;html=1;fontSize=12;fontStyle=0;aspect=fixed;pointerEvents=1;shape=mxgraph.aws4.client;" parent="tGi2XLsGErRzi48nDTFP-1" vertex="1">
          <mxGeometry x="30" y="243.5" width="43.11" height="42" as="geometry" />
        </mxCell>
        <mxCell id="tGi2XLsGErRzi48nDTFP-33" value="Internet" style="sketch=0;outlineConnect=0;fontColor=#232F3E;gradientColor=none;fillColor=#232F3D;strokeColor=none;dashed=0;verticalLabelPosition=bottom;verticalAlign=top;align=center;html=1;fontSize=12;fontStyle=0;aspect=fixed;pointerEvents=1;shape=mxgraph.aws4.internet;" parent="tGi2XLsGErRzi48nDTFP-1" vertex="1">
          <mxGeometry x="100" y="251.5" width="42.25" height="26" as="geometry" />
        </mxCell>
        <mxCell id="tGi2XLsGErRzi48nDTFP-34" style="edgeStyle=orthogonalEdgeStyle;rounded=0;orthogonalLoop=1;jettySize=auto;html=1;" parent="tGi2XLsGErRzi48nDTFP-1" source="tGi2XLsGErRzi48nDTFP-31" target="tGi2XLsGErRzi48nDTFP-33" edge="1">
          <mxGeometry relative="1" as="geometry" />
        </mxCell>
        <mxCell id="tGi2XLsGErRzi48nDTFP-36" value="" style="edgeStyle=orthogonalEdgeStyle;rounded=0;orthogonalLoop=1;jettySize=auto;html=1;endArrow=none;entryX=0;entryY=0.5;entryDx=0;entryDy=0;entryPerimeter=0;" parent="tGi2XLsGErRzi48nDTFP-1" source="tGi2XLsGErRzi48nDTFP-33" target="b1j5PnSS1ncNtvrSyaUf-18" edge="1">
          <mxGeometry relative="1" as="geometry">
            <mxPoint x="239" y="549.5" as="targetPoint" />
            <mxPoint x="141.2091492086886" y="276" as="sourcePoint" />
            <Array as="points">
              <mxPoint x="220" y="265" />
              <mxPoint x="220" y="559" />
            </Array>
          </mxGeometry>
        </mxCell>
        <mxCell id="6SpgYArjjg1QMcq7gyZZ-7" value="&lt;div&gt;フロントエンド&lt;br&gt;&lt;/div&gt;REST API&lt;br&gt;呼び出し" style="edgeStyle=orthogonalEdgeStyle;rounded=0;orthogonalLoop=1;jettySize=auto;html=1;entryX=0;entryY=0.5;entryDx=0;entryDy=0;entryPerimeter=0;" parent="tGi2XLsGErRzi48nDTFP-1" source="tGi2XLsGErRzi48nDTFP-33" target="6SpgYArjjg1QMcq7gyZZ-0" edge="1">
          <mxGeometry x="0.4703" y="6" relative="1" as="geometry">
            <mxPoint x="220.5" y="285" as="sourcePoint" />
            <mxPoint x="312.5" y="286" as="targetPoint" />
            <mxPoint as="offset" />
          </mxGeometry>
        </mxCell>
        <mxCell id="6SpgYArjjg1QMcq7gyZZ-24" value="X-Ray" style="sketch=0;points=[[0,0,0],[0.25,0,0],[0.5,0,0],[0.75,0,0],[1,0,0],[0,1,0],[0.25,1,0],[0.5,1,0],[0.75,1,0],[1,1,0],[0,0.25,0],[0,0.5,0],[0,0.75,0],[1,0.25,0],[1,0.5,0],[1,0.75,0]];outlineConnect=0;fontColor=#232F3E;fillColor=#C925D1;strokeColor=#ffffff;dashed=0;verticalLabelPosition=bottom;verticalAlign=top;align=center;html=1;fontSize=12;fontStyle=0;aspect=fixed;shape=mxgraph.aws4.resourceIcon;resIcon=mxgraph.aws4.xray;" parent="tGi2XLsGErRzi48nDTFP-1" vertex="1">
          <mxGeometry x="1121" y="156" width="42" height="42" as="geometry" />
        </mxCell>
        <mxCell id="b1j5PnSS1ncNtvrSyaUf-0" value="CloudWatch" style="sketch=0;points=[[0,0,0],[0.25,0,0],[0.5,0,0],[0.75,0,0],[1,0,0],[0,1,0],[0.25,1,0],[0.5,1,0],[0.75,1,0],[1,1,0],[0,0.25,0],[0,0.5,0],[0,0.75,0],[1,0.25,0],[1,0.5,0],[1,0.75,0]];points=[[0,0,0],[0.25,0,0],[0.5,0,0],[0.75,0,0],[1,0,0],[0,1,0],[0.25,1,0],[0.5,1,0],[0.75,1,0],[1,1,0],[0,0.25,0],[0,0.5,0],[0,0.75,0],[1,0.25,0],[1,0.5,0],[1,0.75,0]];outlineConnect=0;fontColor=#232F3E;fillColor=#E7157B;strokeColor=#ffffff;dashed=0;verticalLabelPosition=bottom;verticalAlign=top;align=center;html=1;fontSize=12;fontStyle=0;aspect=fixed;shape=mxgraph.aws4.resourceIcon;resIcon=mxgraph.aws4.cloudwatch_2;" parent="tGi2XLsGErRzi48nDTFP-1" vertex="1">
          <mxGeometry x="1122.5" y="89" width="41" height="41" as="geometry" />
        </mxCell>
        <mxCell id="b1j5PnSS1ncNtvrSyaUf-30" value="" style="group" parent="tGi2XLsGErRzi48nDTFP-1" vertex="1" connectable="0">
          <mxGeometry x="504" y="203" width="122.49000000000001" height="96" as="geometry" />
        </mxCell>
        <mxCell id="6SpgYArjjg1QMcq7gyZZ-8" value="&lt;div&gt;フロントエンド&lt;/div&gt;&lt;div&gt;&lt;span style=&quot;background-color: initial;&quot;&gt;Lambda(&lt;/span&gt;&lt;span style=&quot;background-color: initial;&quot;&gt;VPC内)&lt;/span&gt;&lt;/div&gt;" style="sketch=0;points=[[0,0,0],[0.25,0,0],[0.5,0,0],[0.75,0,0],[1,0,0],[0,1,0],[0.25,1,0],[0.5,1,0],[0.75,1,0],[1,1,0],[0,0.25,0],[0,0.5,0],[0,0.75,0],[1,0.25,0],[1,0.5,0],[1,0.75,0]];outlineConnect=0;fontColor=#232F3E;fillColor=#ED7100;strokeColor=#ffffff;dashed=0;verticalLabelPosition=bottom;verticalAlign=top;align=center;html=1;fontSize=12;fontStyle=0;aspect=fixed;shape=mxgraph.aws4.resourceIcon;resIcon=mxgraph.aws4.lambda;" parent="b1j5PnSS1ncNtvrSyaUf-30" vertex="1">
          <mxGeometry y="26" width="69" height="69" as="geometry" />
        </mxCell>
        <mxCell id="6SpgYArjjg1QMcq7gyZZ-20" value="" style="shape=image;verticalLabelPosition=bottom;verticalAlign=top;imageAspect=0;aspect=fixed;image=data:image/png,iVBORw0KGgoAAAANSUhEUgAABCUAAAOqCAYAAACrSe8RAAAACXBIWXMAAC4jAAAuIwF4pT92AAAgAElEQVR4nOzdT3JbR7YnYNwKz+VegVQTTKVagfhmPROxAtErML0C0+MemFqBqRWAGvTY5ApKjJ5h8sgVtLiBRse1EyqYligAvPee/PN9EQz1q/c6CsgLJhO/PHmyW6/XMwAAAICp/cOIAwAAABGEEgAAAEAIoQQAAAAQQigBAAAAhBBKAAAAACGEEgAAAEAIoQQAAAAQQigBAAAAhBBKAAAAACGEEgAAAEAIoQQAAAAQQigBAAAAhBBKAAAAACGEEgAAAEAIoQQAAAAQQigBAAAAhBBKAAAAACGEEgAAAEAIoQQAAAAQQigBAAAAhBBKAAAAACGEEgAAAEAIoQQAAAAQQigBAAAAhBBKAAAAACGEEgAAAEAIoQQAAAAQQigBAAAAhBBKAAAAACGEEgAAAEAIoQQAAAAQQigBAAAAhBBKAAAAACGEEgAAAEAIoQQAAAAQQigBAAAAhBBKAAAAACGEEgAAAEAIoQQAAAAQQigBAAAAhBBKAAAAACGEEgAAAEAIoQQAAAAQQigBAAAAhBBKAAAAACGEEgAAAEAIoQQAAAAQQigBAAAAhBBKAAAAACGEEgAAAEAIoQQAAAAQQigBAAAAhBBKAAAAACGEEgAAAEAIoQQAAAAQQigBAAAAhBBKAAAAACGEEgAAAEAIoQQAAAAQQigBAAAAhBBKAAAAACGEEgAAAEAIoQQAAAAQQigBAAAAhBBKAAAAACGEEgAAAEAIoQQAAAAQQigBAAAAhBBKAAAAACGEEgAAAEAIoQQAAAAQQigBAAAAhBBKAAAAACGEEgAAAEAIoQQAAAAQQigBAAAAhBBKAAAAACGEEgAAAEAIoQQAAAAQQigBAAAAhBBKAAAAACGEEgAAAEAIoQQAAAAQQigBAAAAhBBKAAAAACGEEgAAAEAIoQQAAAAQQigBAAAAhBBKAAAAACGEEgAAAEAIoQQAAAAQQigBAAAAhBBKAAAAACGEEgAAAEAIoQQAAAAQQigBAAAAhBBKAAAAACGEEgAAAEAIoQQAAAAQQigBAAAAhBBKAAAAACGEEgAAAEAIoQQAAAAQQigBAAAAhBBKAAAAACGEEgAAAEAIoQQAAAAQQigBAAAAhBBKAAAAACGEEgAAAEAIoQQAAAAQQigBAAAAhBBKAAAAACGEEgAAAEAIoQQAAAAQQigBAAAAhBBKAAAAACGEEgAAAEAIoQQAAAAQQigBAAAAhBBKAAAAACGEEgAAAEAIoQQAAAAQQigBAAAAhBBKAAAAACGEEgAAAEAIoQQAAAAQQigBAAAAhBBKAAAAACGEEgAAAEAIoQQAAAAQQigBAAAAhBBKAAAAACGEEgAAAEAIoQQAAAAQQigBAAAAhBBKAAAAACGEEgAAAEAIoQQAAAAQQigBAAAAhBBKAAAAACGEEgAAAEAIoQQAAAAQQigBAAAAhBBKAAAAACGEEgAAAEAIoQQAAAAQQigBAAAAhBBKAAAAACGEEgAAAEAIoQQAAAAQQigBAAAAhBBKAAAAACGEEgAAAEAIoQQAAAAQQigBAAAAhBBKAAAAACGEEgAAAEAIoQQAAAAQQigBAAAAhBBKAAAAACGEEgAAAEAIoQQAAAAQQigBAAAAhBBKAAAAACGEEgAAAEAIoQQAAAAQQigBAAAAhBBKAAAAACGEEgAAAEAIoQQAAAAQQigBAAAAhBBKAAAAACGEEgAAAEAIoQQAAAAQQigBAAAAhBBKAAAAACGEEgAAAEAIoQQAAAAQQigBAAAAhBBKAAAAACGEEgAAAEAIoQQAAAAQQigBAAAAhBBKAAAAACGEEgAAAEAIoQQAAAAQQigBAAAAhBBKAAAAACGEEgAAAEAIoQQAAAAQQigBAAAAhBBKAAAAACGEEgAAAEAIoQQAAAAQQigBAAAAhBBKAAAAACGEEgAAAEAIoQQAAAAQQigBAAAAhBBKAAAAACGEEgAAAEAIoQQAAAAQQigBAAAAhBBKAAAAACGEEgAAAEAIoQQAAAAQQigBAAAAhBBKAAAAACGEEgAAAEAIoQQAAAAQQigBAAAAhBBKAAAAACGEEgAAAEAIoQQAAAAQQigBAAAAhBBKAAAAACGEEgAAAEAIoQQAAAAQQigBAAAAhBBKAAAAACGEEgAAAEAIoQQAAAAQQigBAAAAhBBKAAAAACGEEgAAAEAIoQQAAAAQQigBAAAAhBBKAAAAACGEEgAAAEAIoQQAAAAQQigBAAAAhBBKAAAAACGEEgAAAEAIoQQAAAAQQigBAAAAhBBKAAAAACGEEgAAAEAIoQQAAAAQQigBAAAAhBBKAAAAACGEEgAAAEAIoQQAAAAQQigBAAAAhBBKAAAAACGEEgAAAEAIoQQAAAAQQigBAAAAhBBKAAAAACGEEgAAAEAIoQQAAAAQQigBAAAAhBBKAAAAACGEEgAAAEAIoQQAAAAQQigBAAAAhBBKAAAAACGEEgAAAEAIoQQAAAAQQigBAAAAhBBKAAAAACGEEgAAAEAIoQQAAAAQQigBAAAAhBBKAAAAACGEEgAAAEAIoQQAAAAQQigBAAAAhBBKAAAAACGEEgAAAEAIoQQAAAAQQigBAAAAhBBKAAAAACGEEgAAAEAIoQQAAAAQQigBAAAAhBBKAAAAACGEEgAAAEAIoQQAAAAQQigBAAAAhBBKAAAAACGEEgAAAEAIoQQAAAAQQigBAAAAhBBKAAAAACGEEgAAAEAIoQQAAAAQQigBAAAAhBBKAAAAACGEEgAAAEAIoQQAAAAQQigBAAAAhBBKAAAAACGEEgAAAEAIoQQAAAAQQigBAAAAhBBKAAAAACGEEgAAAEAIoQQAAAAQQigBAAAAhBBKAAAAACGEEgAAAEAIoQQAAAAQQigBAAAAhBBKAAAAACGEEgAAAEAIoQQAAAAQQigBAAAAhBBKAAAAACGEEgAAAEAIoQQAAAAQQigBAAAAhBBKAAAAACGEEgAAAEAIoQQAAAAQQigBAAAAhBBKAAAAACGEEgAAAEAIoQQAAAAQQigBAAAAhBBKAAAAACGEEgAAAEAIoQQAAAAQQigBAAAAhPjOsANA2brl6sVsNnuR3sTR1pt5NZvNvt/6n/v/m+cHvtn72Wz28cF/dpX+/bT1v/u4Xsw/+UgBALvo1uu1gQKAjG2FDpuQYfvfZ5m+8putsOJTCjBu14v5bQavDQDIhFACADLRLVevtsKHzf/7ZYXP5zqFFbepsuJqh/8/AECFhBIAECAFENs/rxt/Dpug4ioFFSoqoGIPjp3NHhw923h4BO1bNpVZ27b/M9VakCGhBACMLC2+X6VFtwBiN3cpoLjs/9WnAsrQLVcPj5jNtgKHp/S1GdrmiNntgx99cWBiQgkAGFgKIY62fnJZhJfsJgUUl+vF/GHDTWBCW8HDJnw4Sv/WdNzseiusuBJWwHiEEgDwREKIyX2uolgv5peNvXeYVLdcHW31uHmVeYPdsd1vHTMTVMBAhBIAcIC0UD9OIUSNzShLcZ8qKC40zITDbVU/HG2FDwLWb7vZDir0rID9CSUAYAdpwb4JIY4b3inM2V0KKM59MYDHbVVAHAkgBrWZh670w4HdCCUA4Cu2goj+541xKkp/HvwiHfHwpYCmPaiCONJsd1Ifto6bCUvhC4QSALBFEFGd+xROqJ6gKY6YZelmKyw1H0EilACAPxfw/eL9RBBRtb564kzvCWrULVevto6XqYTIn4ACEqEEAM1Ki/iT9KNHRDvuUjhx0fpAUK5U1bVdDaEnRLk+pHDCnESThBIANGXreMapkubmCScoiuNl1XPcjCYJJQBoQrdc9Xfsn7k5gy8QTpCtFEScOJbRnOt01bF5ieoJJQCoWuoVcWoxzw6EE2RBRQRb7raqJ9wkRJWEEgBUZ2tBf+acNQfovwScrhfzS4PHlDTc5RH90Y7zVD3haAdVEUoAUI0URpymH0c0eCq3dTC6dLTsVMNd9vA+zU3CCaoglACgePpFMDJfABhct1xtbv5xtIxDmZuoglACgGJthRFvPUVGdp/OdJ8ZaA6lKoKRvE9HzvScoEhCCQCKI4wg0E1a/DvSwc665eoohRF6RTCWTc8JDTEpjlACgGKknhF9GPGjp0awd6ls2uKfr0pHNPow4qVRYiL3KTh1ixDFEEoAkD0NLMlUv/g/cUsH29z+QyZUdVEMoQQAWUs7jefCCDL2IYUTqiYaJjwlUx9SOKEZJtkSSgCQpXQG+1zZM4XoqyaO7Uq2RxhBAe7TcbNzD4scCSUAyEpqYnmuIRyF0muiEcIICnSTqro+enjkRCgBQDa65erMAp8KWPhXLh0r0zOCUv3iemNyIpQAIFw6qnFhgU9FdMCvkLmKighPyYZQAoAwqfz5wlENKvY+hROOcxSsW65epWNlr1sfC6qjaoJwQgkAQnTL1XEKJBzVoHY3qQmm7veFScFp/4Xtx9bHgqqZowgllABgUqmR5YUdRxrjdo7CdMvVaQokBKe0wJEzwgglAJiMRT7MfrDoz5ujGjTuQ+o14cgZkxFKADA6vSPgL96vF/MTQ5IXRzXgs7tU2aUJJpMQSgAwKr0j4IvsRmbErRrwRT+tF/NzQ8PYhBIAjMKuI3xT31zuSDARxzwF3+QGIUYnlABgcOlMdr/r+NLowqN0vQ+iOgJ2Zp5iVP8wvAAMqVuu+rPyVwIJ2En/e/IxBXlMpFuu+pL03wUSsJPNPHVkuBiDSgkABpHKoPuF/lsjCnu7T0c5NJYbkSoueDI3CDE4lRIAPFla6F8JJOBgfSPYKxUT40lXEqvigqf5rVuuhBIMSqUEAE/idg0YlIqJgbmSGEbhBiEGI5QA4GDdctV3rf/ZCMKgBBMDSZUnl3pHwCjcIMQghBIA7M3OI4xOMPFEqenub0W/CcjfXbqZw1zFwYQSAOylW65epJ1H57JhXIKJA6Uz73rcwDTMVTyJUAKAnW01tNQ/AqahPHoPqYpLM0uYnmCCg7l9A4CdpFLofwskYFIv060c3xv2x6XQ9FYgASE2NwgdG372JZQA4JvSVXrOZkOMl+nIFF+RQlNVXBCr//1bpt9H2JlQAoBHpbPZvxolCPU6/S7yQLoF6DeBBGTjN8EE+9BTAoAvSuXi55rFQVZ+Wi/m5x7JnzS0hKz9sF7Mhal8k1ACgL/RLA6ytlgv5k0f50hzVD8GrzN4OcDXNT9f8W1CCQD+QiAB2Wu6y705CoriVg6+SU8JAD6z2Ici9L0TLlq8kSPdsPHRHAXF2NzK8coj42uEEgD8wXV6UJT+97Sps9ppjupD0+cZvBxgd4IJHiWUAGB7sa97PZTjTbqut3rmKChesxVefJueEgCNs9iH4v2r5vPa5iioyk3qMfHJY2VDpQRAwyz2oQqXte4+mqOgOi/TdePwmVACoFEW+1CN5zUu8rvl6sQcBVV62y1Xggk+c3wDoEECCajSYr2YX9bwxrrl6mg2m/2ewUsBxvPDejFvqmEvXyaUAGhMKvO+FUhAde5ns9mr9WJ+W/IbE5pCM+5Tf4lqe+KwG8c3ABqSAgmLfajTs9KvCRVIQFOe1dwTh90JJQAasRVIvPTMoVqvS70mVCABTep74lRx7IzDOb4B0ACBBDSlL4l+UdKVewIJaN4v68X8rPVBaJVKCYA2XAgkoBlFHePolqsXAglo3s+pwS0NEkoAVK5brvovJ288Z2jKm265Os79DacqrkuBBNCHqfpLtEkoAVCxbrnqSyHfesbQpPOcF/iOlQEPPC+9WS+HEUoAVKpbrk76ckjPF5rVL/BzbnrpWBnw0Ju0fqEhGl0CVCidy/zdswVms9k/14v5bU4DkY6VqeICvqRv1vsqt3mL8aiUAKhM6mLvei1gI6ty6HRlqUAC+JqimvXydEIJgIqkM9oXmsYBW17n0tU+lWX/msFLAfL2OgWYNEAoAVCXS2e0gS8I33VMVVzn0a8DKMaZ2zjaIJQAqEQ6o/3a8wS+4Hlk87itmzZUcQG7coyjERpdAlQgfdn4zbMEHtE3j3uxXsw/TTlIrv4Enui/1ov5lUGsl0oJgMKlkmiBBPAtz4KuCD0XSABPoFqickIJgIJt7UAC7OJ0yjPabtoABtAfPzszkPUSSgCUzRltYB+TVUukGz/ctAEMYdJAlWkJJQAK1S1XSqKBQ4y+uO+WqxfpNiCAITxze0+9hBIABeqWq+PZbPajZwccYIpqiUtVXMDA3qbAk8oIJQAKk/4ga/oEPMVo1RKquIARWf9USCgBUB47kMBTjVItoYoLGNnr1K+GigglAApiBxIY0KDVEqq4gIm4iaMy37U+AAClsAPJI+5ns9nHHQao/9L43ECS9NUSxwMGCaq4gCn8US2xXsxdiV4JoQRVSDs9rzxNkiHL+vovelfrxfxT5OCmz7gdyLbdzGaz2/SZ7H/6z+THQz+b3XLVz5nfp9+XzRz6uvVBbtDZEHOLKi6+Ynve+rQVnt6uF/PbXQdtq1z/xYMfc1a7zgZe7xGoW6/Xxp9ipVLRfiH0xlNkRO/Xi/lJ5AB3y9WVxVdT+sqHq/TzccrdoBRWvEqLvSOVFU1YrBfzg6/vTF8Yf299EJldb4L8FDrsUr31ZGktuJmzhKtt+S/VEnUQSlCsVMp+oVSUCXxYL+bHUQPdLVd9M7pfPejq3aTy98upFvO7SAv+o1TmLwCu08FzXKriuvW3uEnXm/A0ty+GKSg7TnOXCp56ha7PGI5QgiKlnbwriyAm8q+oL4npC+FHn/Vq3aRw9XKfUuZIKRDuf962/vBqsl7Mu0PeTrdcXQqrmnGT1l6XJe1Op7+j/Zx1IqCo0j9L+fvJ1wklKE7albnyh4WJ/LJezMO6PHfL1Uef9ercpSDiouSFVJqLj9O1kj6jhTsklFDF1YTigtPHpIDiNM1djqbVIfyILU8nlKA4dmWY0N16MX8RNeDdctWHIT974NXoS53Pn3J2P1epem2z0FfVU6B9QwlVXFWrKoj4mm65OknVE3pQlK3vwfQiuiE5T+P2DYqSdmUEEkwlLHlPX/IEEnV433cJr3lxn443naTqidP048tqOX454JXq6VSXu9TT5ryVUvj1Yv5HxdpWqOpIWpmepfXaeesDUTKVEhRDd28m9m69mJ9GDbrbNqpQfRjxmLQLeaZEOnt7H1FzbKMqH9JRsuoquPaVqn/OhBNFCq1s5emEEhRBd28m1u8YvYoqBbTgL17TYcRD6fN8Zv7OysG74o5tVOE+PX/z1BekyolzGwPFedLVxsQSSlAEzf6YWNgfNgv+ogkjvmLrWIcjSTHuNlc3pusbD/6MquIq2n36sn3u/P23pZuGzlV7FcP1oAUTSpC9brm6UErHhEL/qFnwF+k6hRHFXJEXJYVuFz7joxsshNiWjuT8VsQIsE0YcSCBanH+h894mYQSZM0CiImFdnBOuzJLD70Y/eflNDVLYw/ps65R4nA25fiDhhDbHKMskjBiIOlIx4Wq3ez9tF7MNbwskFCCbKU/AFcWQEwo7I9ZWvB/VCZajHepOsJC/0CqJp7k/kElxMex/wtVLRbHHDUCV3Vn72a9mL9qfRBKJJQgS76gEeB6vZgfRQ18t1z1YciPHnz2+rL4E0c1huOzv7PrTTXEFCHENrdfFeU6zVF624wk/T5c2jTL1j99/svzXesDQLY0FmJK9+mO6xCpKsiXsvzZeRxBf/VuamZ8bpH/FzdbIUR0COaIUv7u0nEytw+MrP99TJVeV45zZOk0/VAQoQS5ctcwU8lhV8n5x7ypjhhZ35cjBRMtH9m7e9AXIovwK5Wr2yTIm8B0YmmsXznWlKVjoUR5HN8gSymBDtu5pgm3YzWE24fmltn7kAIJi/0JNNZLaPTmlE/liuLsCUwzoCl7lv419TE3nkYoARCoW65u7UJmyc0aQSoPJsL6QhzCLnDW3qc5SmCaAcFEdtzCURihBEAQXbyzdZN2H+2yBKkomLhJ7+OytN1szS2zdZ/mJ70jMuPWuKy4haMwQgmAAO78z5bjGpkodIF/t3VV52XJn6NuubpyXWt2+pDr2M0C+RJMZMUtHAXR6BIgxplFS3Z+WS/mZ60PQi76SpW0W5/zAv/+QQhRxQI4laILJPLiuEYBCpm3WnHk5qByqJQAmFhqHvffxj0b+kdkLMNmsNdbzSmrbDCo1012nI8vjONPWfiwXsyPWx+EUgglACameVxW+kDiSP+IvAU3kbvZqobI5qrOsXTLVX+V3q91vrvi6B9RMM0vw92vF/PvGx+DYgglACakSiIrGloWpFuu+p3iHyd4xXcPQohmziTrdZMVgWkFhHzhXA1aCD0lAKalZ0EebtKC3/nsQqwX89P0pXnoKqNNX4jL1kKILzgVSGRBYFqJ/thNan6pOjJGf3zD71EBVEoATESVRDYEEgUb4FaI+weVEBasqiRyYn6qULdc9fPMy9bHIcD1ejE/au5dF0ilBMB0VEnEs+Av33GqatgnmLjeqoQQQnyZKol45qd6bXbs/Y5Nyy1ChVApATABVRJZsOCvyDd6TFR/Q8aQVElkwfxUOTdyhNFXogAqJQCmoUoilgV/ZVKPifO0A9l/qe6f7UchxEFUScQyPzWgn5u65erdRA17+Y8jfSXyp1ICYGSqJMJZ8MNXqJII55aNhqTftyv9JSb1fr2YnzT0fov0j9YHAGACqiTiCCTgcaok4ggkGpP+FvmCPC2NLgsglAAY0UhXGLKbfsF/LJCAR50anjCu/WxQeubvWh+HCT1PazEyJpQAGJcFf4zNDuRti28edtEtVyeqJML8tF7MLxt97/xZQXlnHCbzqpH3WSyhBMC4hBIx7EDCtzlaFqM/437e4hvnT6mCz+/fdIQSmRNKAIzELmSYX+xAwuO65aq/teS5YZrcjaZ7zP4MJi7S9cWMTyiROaEEwHhUSUzvw3oxt/sE32Z+mt59usIWNvy9msaLFt5kyYQSACPolqsjV35N7k5Xc/i2dE3xa0M1uRN9bti2XsyvVEtMwnyXOaEEwDh8OZ6emzZgN3Znp/fOsTK+wu/jBFIYS6a+82CASOmPxCB/KNKOQzjXgIb4SWNL+LY0PzlCMK07Xzz5mn7t0i1X13bzR9evNVUqZUooUYlUKn6SFhoa69GkbrnaXAMZ/eVUlcS0rnWyh51ZJ0zvRBUX39CHVr8bpFH1zS6z2Lzi7xzfqEC3XJ2nieythQaNe5bJbpQGctO5FwLBXsxP03qXSxUf+dJbYhLfN/AeiyWUKFy3XPVfwH5sfRxgS+huVLdcvXLN3qTONI6D3aT5SQPe6Ti2wT4ujNaoXAuaMaFEwdId4z+3Pg7wQHQjMbuQ03FsA/ajqmhajm2ws/VifpGq/xiHSomMCSUKlXY7JKrwV/cZdDfXQG46vmDBfvzOTOeDYxscwNp+PColMiaUKFDqnH2hfwT8TWgg0S1XJ34vJ/OLYxuwu1RdaX6ajqo5DqH6bzzmv4wJJcp07kwofJEqiTbcWbjB3lRJTEdoykHS5+bG6I0jXUNPhoQShemWq9N0ywbwV6FHN1IF0xvPZBJnzmnD7sxPk7oXmvJEjnCMRyiRKaFEQbrl6mg2m/3a+jjAV6iSaMNNagYG7M78NB2hKU8VvZ6pmWaXmRJKFCLtcpik4OuiG4pZ9E/DOW3Yn/lpGnduBOKpHOEYlWaXmRJKlONKgxZ4lKMb9bvWzR72Y36a1FlD75Vx+VtHU77zuPPXLVcaW8LjPgSXy9qFnIYF/1ekL552gPiS/2lUJnHnaBkD6jdafjSgg3N8I1NCicylKwZNSvC46KNNR8H//S1QJfFA6jN0kkIxlXQQy7ENBtP/veuWq3tz++CE95kSSmQsXVvjjxw87l6TyybYgUxSVcSFknzIxr05ihF8nM1mrw0sLdBTIm8nElJ4VL8QPIo8upF2q/2ejktZdNItV/0uz61AArJy7sYNRqA6kGaolMjbZSozcv4J/upT+mN9kcFCUJXE+FSM/SeQ0PQY8iM0ZQz9fP+zkR2U4xuZEkpkbL2Yf/SFB7Knn8S4lEX/x4VAArLzPl3hCINKfSUM6rD8Dc2U4xsAB0pn+92MM65LZdF/fNbOfNYgS0JTxnRjdGmBUALgcCqZxtf8gj81PVbCC/m5cysQI1OFQxOEEgCHc3RjXBb8fzrL4UUAf6PfDWP7aIRpgVAC4HBCiXGpkvizueXbDF4K8HfNz1GMTqXEwNKtaWRGKAFwgFRS/9zYjcqC304s5OqDfjdMQChBE4QSAIdxrdS4blrvaJ92c15n8FKAv7s0JkxA8EUThBIAh1H+Ny4Lfr0kIGfmKEa3Xsz1lKAJQgmAw6iUGFfTC35VEpA1RzcABiSUADiML4zjubM7pEoCMqZKAmBAQgmAPencPLqmrwFVJQHZE0owpTujTe2EEgD7c3RjXE2HEqokIGuObjA1N3BQPaEEwP6EEuNqdhdSlQRkr/XQFGBwQgmA/b0wZqO5a3wXUpUE5M3RDYCBCSUA9mcnezzN7kKqkoDs9aGpUnqm5jNH9YQSAHvolitHN8bVcmn0aQavAfg6RzeIIJSgekIJgP04ujGuJq8C7Zar/nP1JoOXAnydoxsAIxBKAOxHpcSI1ot5k6GEXhJQBJUSRPjeqFM7oQTAfoQS47mu9Y09JlVJvM33FQKa8BLIumNYrW5+ZE0oAbAfOxbjafXcrCoJyJ8qCaiAcDFPQgmA/bgdYTzNhRKqJKAYdleJYjOE6gklAMhFizuRJxm8BuDbVEoQ5aWRp3bfecIwnLTreer83yj6XaqzyLK7brk6ivrvbkRTJZXdcvW9a0ChDA034QUYnVACBtItV/2O52/GczSvUwmjneVKNbjo7wOJZxm8DuBxN8aHCDZDBtdkQ+0SOL4BA+iWq2OBxCSOg//7LQ7Gc1/rG/sSVRJQlFab8BJPPwmaIJSAJ0pfLs6N4yR0TK5Xa1USx6okoBiObhDFcWCaIOJRTZQAABwZSURBVJSAp+t3O58bx0lE71ZZHDAU14BCOQTiRHlh5AclYMyUUAKeQAl2c5RRjqeZhULqPyPIhHL4IkMUocSwBIyZEkrA05wrwZ6UK9nq1dJCQZAJwC5eG6VBCSUyJZSAA3XLVV/K/9b4NcXigCdJndTdOQ8FWS/mAnEml66ZZ1iqnjIllIDDaW45PQk3pdNLAoBd6GNFM4QScIC022nXfHoS7npVvxOZdr3MGwDsQigxMFVP+RJKwGEujFtblFEyAFUSAOzqyEjRCqEE7Enn/FCRlRJCCQ6WQi09aKA8N54ZQVTWDeu6pjdTG6EE7CFdAaqXRJD1Yq6nBKU68eSgSP7uMLl0TBiaIZSA/Zy6AjTMXaPvm8KlMNM1oADsSj+J4eknkTGhBOxHch1HHw9KdSzMBGAP1pvDu63tDdVEKAH76Y9u3BuzSfUVEj+tF3NNAimVzy6Uy441Ed4Y9cEJJTL2XesDAPtYL+aXs9nse4MG7KJbro41xoWiqXJiUunvBsNzrXzGVEoA7EYpJYfQSwKAfVhvDO9es/S8CSUAYATdcvXKlW4A7EmlxPBUSWROKAFADmo8FqVKAirQLVcvPEemkMJsR/6G5+aNzAklAMhBVc3k0jWgbzN4KcDTCSWYyomRHoUml5kTSgDA8FRJQD00uGYqjm6Mw/GNzAklAMhBbYt+u11QD9eCMjpHN8azXsyFEpkTSgDsRunfuKpZ9HfL1YmFJVTF8Q2moMJuHNc1vqnaCCUAdiOUGFdNlRKqJKAuQglGlfoQOboxDk0uCyCUACAHL2t4Cq4BhSr5nWZsfSDxzCiPwtGNAgglAMhCJdfuKb+FCrkWlJH52zEelRIFEEoAkIsa+koov4U6aXbJKLrl6qiWasEM3awX80+tD0IJhBIA5KLoRX9aWCq/hTodea6MRB+i8aiSKIRQAmA3kvbxlb4T6UsL1MvvN4NLx4LeGtnRCCUKIZQA2IE7ridR+qJfeTfU62W6IQGGdGY0RyWUKIRQAoBcPCu8mZwvLFA31RIMRpXE6PSTKIhQAoCcWPQDuTI/MSRVEuNSJVEQoQTA7u6M1ehKXvQ74gN1c7sOg1AlMYnLBt5jNYQSALu7NVajK3nRb1cG6va8W670jmEI50ZxVPfrxdzf5IIIJQDIybNSF/3rxbzflbnJ4KUA43F9I0+Sro9+YxRHJZAojFACYHfK86dR8qK/f+33GbwOYByOcPBUqiTG5+hGYYQSALvTxXkaxS7609WxfaXHdQYvBxieIxwcrFuuTvvrZY3g6IQShRFKAOxOKDGNohf968X8dr2Y9+W5/5zNZj/NZrMPKaRQQQF1OPUc2Ve3XH3vxo1JfHAVaHm+a30AAPbg+MZ0Tkpf+PfhRCrTVao7gLSg78f0WfFvhtId959HX3zY04X5axKqJAqkUgJgdxag09FMjocuLejJxDNzFPvolqtjzS0nI5QokFACYEepXwDT6G/hsOjnD+kc9mujQUYc4WAnqcrrwmhNwtGNQgklAPajL8B0hBLMUn+RX40EmXkuOGVHjm1MR5VEoYQSAPtRLTGd1+k+dxplh5HMCSV4VKrycmxjOkKJQgklAPZza7wmZdHftjPX55ExwSlflaq83LYxnfeObpRLKAGwH6HEtN52y9WLlt4wf0qN4X40HGTO7Tr8zVaVl2Mb01ElUTChBMB+HN+Ynp2mxji2QUFe6i3BF1yo8prU3XoxF0oUTCgBsB+VEtNTLdEe139SEsEpn3XL1Zk+EpMTYhdOKAGwB9eChrHgaITrPynQ8/RFlMalqpmfWx+HANYIhRNKAOzv2phNTkO5Brj+k4KdquhqW5q/fmt9HAJ8WC/mqlgLJ5QA2J8/fjHshFQs9ZFwJphSPTNHtSsFEletj0MQzWYrIJQA2J8jHDGUSNetDySetz4IFO11ujWGhqQKmSt9cEL0DS6FQRUQSgDsTygRR4l0hbrl6kIfCSpxYY5qx1aFl0Aiho2KSgglAPYklQ+lRLoyqTHc29bHgWqYoxqRAokrV3+GuXfkrx5CCYDD3Bi3MK/TDQ0ULgUSGsNRm9eOmtVNIJGF8/Vi/qn1QaiFUALgMKolYv2aGotRqHSbikCCWv3sxqA6bfWQEEjE0uCyIkIJgMPoKxHvMu1WUZgUKCm7pXaX+kvUJc1dHwUS4d6rkqiLUALgMCol4j13drs8W1fnaQxH7Z4JT+th7sqK41GVEUoAHGC9mN/2V1EZu3BvnN0uh0U9DXopPC1f6n9j7srD+7QGoyJCCYDDqZbIw89pwUjGBBI07E269pYCpeD7N3NXNmxEVEgoAXA4oUQ+ftP4Ml+p4Z9Agpa9FUyUpT92k57Zz62PRUZUSVRKKAFwOI368nIlmMhPqmL5XSAR4v81+J5z9tZxszJsVXa9bX0sMuP3p1JCCYADpc7PN8YvG88EE3lJgYRrP+P8n1bfeMb642auMsxYt1wdu/IzS6okKiaUAHgaRzjyIpjIRCp7FkjEuZ/NZv+r1TefuR8d5chPOq7RB0ZLlV3ZuVclUTehBMDTOMKRH8FEoLSwV/Ycr/9y9b9bH4SM6TGRka3jGj+2PhaZOlclUbduvV63PgYAT9ItV5/sqmSp31k5Xi/mqlkmkhb2fVD3vIk3nK+79WL+YvbnM+mfx5vWByRj12me+tT6QERJfT40s8xX/7f8hd+RuqmUAHg61RJ56oOi310XOo2te/wFEvG2y5zNT3l7rbIrRj/m3XL1USCRvTOBRP2EEgBPZ9Gft980lhvP1rV57vHPQ18lsX0swPyUv5cpmDhufSCmkqoj/q2ZZfb6+czf7wY4vgEwAEc4iqBMemCOa2Tpvx4eWXKEoyjv7AyPp1uujmaz2YU5qxh/m8+ok0oJgGHYjcxfXyZ9mxalPNHWTqPFfT6uv7KANz+V40fHOYbXLVcvUjj3uzmrGB8EEu0QSgAMw6K/DJs+E+f9sYPWB+MQfajTLVe3zmFn6fQrL8r8VJb+SMG/U/DHE6TjZf04/rdqoaLcPzKfUSHHNwAG4ghHce5ms9mJnZjdpBDn3FWf2Xq3Xsy/uohPfT88u/KYpw7ULVenqemrv8vl+WW9mAvlGqJSAmA4diPL8jxVTVyomnhc2mm89aU2W/cPbtz4EvNTmbbnqRetD8Yu+puAUjXXrwKJIt0JJNqjUgJgIOkM8L+NZ5HuU3M5Xb63pGs+z5zBzt5Pu3x20xc1z7Jsv/QVSxph/p35qhqaWzZIKAEwIIv+4t2lcOKi8vf5KIv7otysF/OdmiKmihe9QMp3n45SCSfMV7V5v17MT1ofhBYJJQAGlM6w/mpMi9dkOGFxX6R/rRfzj7u88FT+/9+tD1hF7tP1ln04cdvSG0+f5ZPUDNERjTr0n+cXgrY2CSUABpR6E/xfY1qNu61Ff5ULJYv7oj3a3PJL0rWIbiGoz4c0T1Vd9p6udD7R36ZKi/VirvdNo4QSAAPT5b5a7/uAopZFf6qKOPYFtVh9YPZq37Asfan7vfXBq9gmSL2opXpiKzg9UcVVrQ/rxfy49UFomVACYGAW/dW7SzcZXOxaNp+DVMVzlIKIY1URxTt4V1Hvm2bcpIDisrSAIgURxymIeJnBS2I8jm0glAAYQ7dcfbSQasJ9Ciiu0sI/q0VVuhHmKP2oiKjHk3YVU5XMb60PYmNu0lx1mWuYmgL94zRf+fvZDsc2EEoAjMGiv1l3KaDoF/0fpzzqkSohNiHE5l/VEPV58q5i+qzc+nw06z7NU1dTz1MbD+ar/ud16w+lUXv3xaFOQgmAkSiRJrlLXwD7oOLT1r+z9IVg5y+XaSext1nQv0g/r3zBbMYgu4quB+WBmzQ3fZ6rhggrtsKHzVx1lP71t5H+M3fk2AYzoQTAeCz6gYEN1gxOtQR7uNkKUmepwuKhTeiwISjlW3a+zpj6CSUARmLRDwxo8GZwglMgyE/rxfzc4LPxDyMBMI705cEfXWAIxyOUOZ+nsANgKh8EEjwklAAYl0U/8FTvxmhGKDgFJnaXrnmFvxBKAIzIoh94opuRu9MLToGpjFHxRQWEEgDjs+gHDnE/9q6i4BSYyE8aW/I1QgmAkVn0Awc6nWgRLzgFxvReHwkeI5QAmIZFP7CPfhF/McWIpeB0zCMiQLtuzC98i1ACYAIW/cAeJl/EpwDkzkMCBnSvjwS7EEoATMSiH9jBH30kghbxuuIDQ+oDiVsjyrcIJQCmZdEPPGaqPhJ/k64d/eDpAAP4YYyrjKmTUAJgQhb9wCPeTdVH4hGn+t8ATzRZTxzqIJQAmJ5FP/DQ9XoxD+87k0qtdckHDvVhvZirCmUvQgmAiVn0Aw/0vWaOcxmU9WJ+lpptAuzjxjFVDiGUAAiQFv2aXgK5dqd3WxCwj34uO3LTBocQSgDEsZsAhDW2fEzqf/Ou+acD7EIgwZMIJQCCWPRD837JvBmcii5gF0c5hquUQygBEMuiH9r0Ph3jylba9VTRBTzmB4EETyWUAAhk0Q9NuimlO32q6Polg5cC5OcHV38yBKEEQDDHOKApfXf6o5LesNs4gC8QSDAYoQRAHiz6oX653rSxi5P0+gHeCyQYklACIAOOcUD1Nt3pb0t8o+nMuGtCgfelHD+jHEIJgEykRf9PngdU6bj0ZnBpZ/R9Bi8FiCGQYBRCCYCMrBfz89ls9sEzgar8kHrH1ODUUTNokkCC0QglAPJzYtEP1aiqGVw6anasvwQ0RSDBqIQSAJnZ6i9h0Q9lq7I7feqL4QsKtEEgweiEEgAZ0lQOild1d/r1Yn6pBw5UTyDBJIQSAJlKX2jeeT5QnCYW8qkHjsaXUCeBBJPp1uu10QbIWLdc9TuSbzwjKEJzC/luueoru15m8FKAYbxbL+aqNZmMSgmA/Gl8CWVodWfxyBwF1fhBIMHUVEoAFKBbrr6fzWZ9c7lnnhdkqelS5265ejWbza7MUVC0Kpvzkj+VEgAFSDdyHLmRA7LU/Nnr1JzXHAVl6n9vFwIJoqiUAChI2o38t2cG2fhlvZifeRx/6parPpj4PYfXAuykDySOUrAIIVRKABQkLRp+8MwgCz8IJP5qvZhfmaOgGDcCCXKgUgKgQN1y1ZeK/+bZQRhnrx9hjoLsbQKJTx4V0YQSAIWy6IcQfanzqUDi28xRkK3m++CQF6EEQMEs+mFSzl7vyRwF2dEHh+wIJQAKZ9EPk7ibzWbHAon9maMgC32oerJezC89DnIjlACogEU/jMrZ6ycyR0EooSpZc/sGQAXS+XYd72F47wUST2eOgjDXs9nslUCCnKmUAKiI3UgY1Lv1Yn5qSIeT5qjz2Wz2rJb3BBnTP4IiCCUAKiOYgCdzw8aIuuXq1Ww2uxJMwGju03GNK0NMCYQSABWy6IeDOXs9AXMUjOYmzWG3hphSCCUAKmXRD3u7Tot5/SMm0C1X36c56mX1bxam4bgGRRJKAFTMoh92pn9EgDRH9cdk3jT35mE4jmtQNKEEQOUs+uFR7u7PQLdc9XPU29bHAQ7wIc1hKrwollACoBHdctV3vP/R84bPnL3OiCa9sBcNeamGUAKgIRb98JnjGhnSCwd2cp2qIwSqVEEoAdCYtOjvS9Wfe/Y0yNnrzOmFA1/Vz19n68X83BBRE6EEQIPSor8PJl57/jTE2euCOHIGf6E6gmoJJQAa1i1X/dVhP/sMUDnNLAvVLVfHqVGv4xy0Su8IqieUAGhct1wdpaoJi35qZHexcN1y9SLNUY5z0Jr3KZBQ3UXVhBIAOM5BjewuVkZlFw25SfOX3jc0QSgBwGfdctXfRvCrEaFwekdUKlV2XWjUS6U0sqRJQgkA/iLdznGhVJoC3aUwwu5ixVJl15kmmFTGUQ2aJZQA4IuUSlOYX2az2bkFfTtUTVCJ6xRGfPRAaZVQAoCvUjVBATSybJiqCQqmsgsSoQQA36RqggxZ0PNZqpo4F6BSgLvUN0ITXkiEEgDsJF3Ld+GGDoK5VYOvSgHqqSuOydB9OmJ25uHAXwklANhLt1wdp3DCop8p3aedcH0jeFQKUPsvfm+NFBkwd8E3CCUA2Fs6x33qSAcTeZfKnS3o2Vk60nGmuosgwgjYkVACgIOlHcl+0fXGKDKC9ymM0MSSg3XL1UkKJ9zSwRT0jIA9CSUAeDI7kgxMGMHg9JtgZDepKkIYAXsSSgAwGDuSPIFSZ0a3dfRMOMFQPqR5y01AcCChBACDE06wh7vUOFUYwWSEEzxRH6JequiCYQglABiNcIJHXPdhhFJnIgkn2NNNqui6FKLCcIQSAIwuhRP9ov+l0W7e+1QV8bH1gSAvQlS+YlMVYd6CkQglAJiMhpjNuku7ixd2F8ldt1wdpxDVPNU2VREwEaEEAJNLV4n24cSxkulq2V2kaGme6sOJE/NUMzY9bi70ioDpCCUACJPOcx8rma7Kh7SzqFcE1UhHO05UT1TpLgWoFwJUiCGUACAL3XL1Ku1Kqp4oz4e0qFfmTNW2qieOBalFE0RARoQSAGQn7Ur2i/43nk62BBE0TZBanJutOUsQARkRSgCQra3jHQKKeP3O4lVa1F8JIuA/UnPM/udIBUU27h/MWXpEQKaEEgAU4UFAcWRnchLXWwt6O4uwg1RBcZLmKdcgT+tma866aumNQ8mEEgAUKe1MHln4D+o67Sxa0MMAUg+KI2HqaG42c5YKLiiXUAKA4m0t/I+UT++sP47xMS3mPwohYHypimJ7rhJS7O5+a84SnEJFhBIAVCcd9dgs+l+5xu+PAOJ2E0CkEML5agiWQopXW3OVqq//uN7MV2nOcoQMKiWUAKAJW4v/TVXFiworKjbhw8etfz8qaYZydMvVJqDYzFe1h6rXab66FZpCm4QSADQtfQF48YWfHAOLTfnyLFU9bP79ZBcR6pVC1e+3AtUXKbTI/fjHJiidPZizZo5fABtCCQD4inQM5FX6326+FMy2vhRs+37P0uvrL/xnfbCwqWr4tBVA3No5BL5kK7DY/Ls9P41RZbEdjt5uhQ6f5y+BA7APoQQAAFRuK7zYePg/f8nn0EHQAIxFKAEAAACE+IdhBwAAACIIJQAAAIAQQgkAAAAghFACAAAACCGUAAAAAEIIJQAAAIAQQgkAAAAghFACAAAACCGUAAAAAEIIJQAAAIAQQgkAAAAghFACAAAACCGUAAAAAEIIJQAAAIAQQgkAAAAghFACAAAACCGUAAAAAEIIJQAAAIAQQgkAAAAghFACAAAACCGUAAAAAEIIJQAAAIAQQgkAAAAghFACAAAACCGUAAAAAEIIJQAAAIAQQgkAAAAghFACAAAACCGUAAAAAEIIJQAAAIAQQgkAAAAghFACAAAACCGUAAAAAEIIJQAAAIAQQgkAAAAghFACAAAACCGUAAAAAEIIJQAAAIAQQgkAAAAghFACAAAACCGUAAAAAEIIJQAAAIAQQgkAAAAghFACAAAACCGUAAAAAEIIJQAAAIAQQgkAAAAghFACAAAACCGUAAAAAEIIJQAAAIAQQgkAAAAghFACAAAACCGUAAAAAEIIJQAAAIAQQgkAAAAghFACAAAACCGUAAAAAEIIJQAAAIAQQgkAAAAghFACAAAACCGUAAAAAEIIJQAAAIAQQgkAAAAghFACAAAACCGUAAAAAEIIJQAAAIAQQgkAAAAghFACAAAACCGUAAAAAEIIJQAAAIAQQgkAAAAghFACAAAACCGUAAAAAEIIJQAAAIAQQgkAAAAghFACAAAACCGUAAAAAEIIJQAAAIAQQgkAAAAghFACAAAACCGUAAAAAEIIJQAAAIAQQgkAAAAghFACAAAACCGUAAAAAEIIJQAAAIAQQgkAAAAghFACAAAACCGUAAAAAEIIJQAAAIAQQgkAAAAghFACAAAACCGUAAAAAEIIJQAAAIAQQgkAAAAghFACAAAACCGUAAAAAEIIJQAAAIAQQgkAAAAghFACAAAACCGUAAAAAEIIJQAAAIAQQgkAAAAghFACAAAACCGUAAAAAEIIJQAAAIAQQgkAAAAghFACAAAACCGUAAAAAEIIJQAAAIAQQgkAAAAghFACAAAACCGUAAAAAEIIJQAAAIAQQgkAAAAghFACAAAACCGUAAAAAEIIJQAAAIAQQgkAAAAghFACAAAACCGUAAAAAEIIJQAAAIAQQgkAAAAghFACAAAACCGUAAAAAEIIJQAAAIAQQon/344dEwAAwDAMqn/Vc7E8IAMAAAAgISUAAACAhJQAAAAAElICAAAASEgJAAAAICElAAAAgISUAAAAABJSAgAAAEhICQAAACAhJQAAAICElAAAAAASUgIAAABISAkAAAAgISUAAACAhJQAAAAAElICAAAASEgJAAAAICElAAAAgISUAAAAABJSAgAAAEhICQAAACAhJQAAAICElAAAAAASUgIAAABISAkAAAAgISUAAACAhJQAAAAAElICAAAASEgJAAAAICElAAAAgISUAAAAABJSAgAAAEhICQAAACAhJQAAAICElAAAAAASUgIAAABISAkAAAAgISUAAACAhJQAAAAAElICAAAASEgJAAAAICElAAAAgISUAAAAABJSAgAAAEhICQAAACAhJQAAAICElAAAAAASUgIAAABISAkAAAAgISUAAACAhJQAAAAAElICAAAASEgJAAAAICElAAAAgISUAAAAABJSAgAAAEhICQAAACAhJQAAAICElAAAAAASUgIAAABISAkAAAAgISUAAACAhJQAAAAAElICAAAASEgJAAAAICElAAAAgISUAAAAABJSAgAAAEhICQAAACAhJQAAAICElAAAAAASUgIAAABISAkAAAAgISUAAACAhJQAAAAAElICAAAASEgJAAAAICElAAAAgISUAAAAABJSAgAAAEhICQAAACAhJQAAAICElAAAAAASUgIAAABISAkAAAAgISUAAACAhJQAAAAAElICAAAASEgJAAAAICElAAAAgISUAAAAABJSAgAAAEhICQAAACAhJQAAAICElAAAAAASUgIAAABISAkAAAAgISUAAACAhJQAAAAAElICAAAASEgJAAAAICElAAAAgISUAAAAABJSAgAAAEhICQAAACAhJQAAAICElAAAAAASUgIAAABISAkAAAAgISUAAACAhJQAAAAAElICAAAASEgJAAAAICElAAAAgISUAAAAABJSAgAAAEhICQAAACAhJQAAAICElAAAAAASUgIAAABISAkAAAAgISUAAACAhJQAAAAAElICAAAASEgJAAAAICElAAAAgISUAAAAABJSAgAAAEhICQAAACAhJQAAAICElAAAAAASUgIAAABISAkAAAAgISUAAACAhJQAAAAAElICAAAASEgJAAAAICElAAAAgISUAAAAABJSAgAAAEhICQAAACAhJQAAAICElAAAAAASUgIAAABISAkAAAAgISUAAACAhJQAAAAAElICAAAASEgJAAAAICElAAAAgISUAAAAABJSAgAAAEhICQAAACAhJQAAAICElAAAAAASUgIAAABISAkAAAAgISUAAACAhJQAAAAAElICAAAASEgJAAAAICElAAAAgISUAAAAABJSAgAAAEhICQAAACAhJQAAAIB/2w6LhvJSJ+iOngAAAABJRU5ErkJggg==" parent="b1j5PnSS1ncNtvrSyaUf-30" vertex="1">
          <mxGeometry x="32" width="90.49" height="80" as="geometry" />
        </mxCell>
        <mxCell id="b1j5PnSS1ncNtvrSyaUf-31" value="" style="group" parent="tGi2XLsGErRzi48nDTFP-1" vertex="1" connectable="0">
          <mxGeometry x="828" y="203" width="134" height="96" as="geometry" />
        </mxCell>
        <mxCell id="6SpgYArjjg1QMcq7gyZZ-5" value="&lt;div&gt;バックエンド&lt;/div&gt;Lambda&lt;span style=&quot;background-color: initial;&quot;&gt;(VPC内)&lt;/span&gt;" style="sketch=0;points=[[0,0,0],[0.25,0,0],[0.5,0,0],[0.75,0,0],[1,0,0],[0,1,0],[0.25,1,0],[0.5,1,0],[0.75,1,0],[1,1,0],[0,0.25,0],[0,0.5,0],[0,0.75,0],[1,0.25,0],[1,0.5,0],[1,0.75,0]];outlineConnect=0;fontColor=#232F3E;fillColor=#ED7100;strokeColor=#ffffff;dashed=0;verticalLabelPosition=bottom;verticalAlign=top;align=center;html=1;fontSize=12;fontStyle=0;aspect=fixed;shape=mxgraph.aws4.resourceIcon;resIcon=mxgraph.aws4.lambda;" parent="b1j5PnSS1ncNtvrSyaUf-31" vertex="1">
          <mxGeometry y="26" width="69" height="69" as="geometry" />
        </mxCell>
        <mxCell id="tGi2XLsGErRzi48nDTFP-44" value="" style="shape=image;verticalLabelPosition=bottom;verticalAlign=top;imageAspect=0;aspect=fixed;image=data:image/png,iVBORw0KGgoAAAANSUhEUgAABCUAAAOqCAYAAACrSe8RAAAACXBIWXMAAC4jAAAuIwF4pT92AAAgAElEQVR4nOzdT3JbR7YnYNwKz+VegVQTTKVagfhmPROxAtErML0C0+MemFqBqRWAGvTY5ApKjJ5h8sgVtLiBRse1EyqYligAvPee/PN9EQz1q/c6CsgLJhO/PHmyW6/XMwAAAICp/cOIAwAAABGEEgAAAEAIoQQAAAAQQigBAAAAhBBKAAAAACGEEgAAAEAIoQQAAAAQQigBAAAAhBBKAAAAACGEEgAAAEAIoQQAAAAQQigBAAAAhBBKAAAAACGEEgAAAEAIoQQAAAAQQigBAAAAhBBKAAAAACGEEgAAAEAIoQQAAAAQQigBAAAAhBBKAAAAACGEEgAAAEAIoQQAAAAQQigBAAAAhBBKAAAAACGEEgAAAEAIoQQAAAAQQigBAAAAhBBKAAAAACGEEgAAAEAIoQQAAAAQQigBAAAAhBBKAAAAACGEEgAAAEAIoQQAAAAQQigBAAAAhBBKAAAAACGEEgAAAEAIoQQAAAAQQigBAAAAhBBKAAAAACGEEgAAAEAIoQQAAAAQQigBAAAAhBBKAAAAACGEEgAAAEAIoQQAAAAQQigBAAAAhBBKAAAAACGEEgAAAEAIoQQAAAAQQigBAAAAhBBKAAAAACGEEgAAAEAIoQQAAAAQQigBAAAAhBBKAAAAACGEEgAAAEAIoQQAAAAQQigBAAAAhBBKAAAAACGEEgAAAEAIoQQAAAAQQigBAAAAhBBKAAAAACGEEgAAAEAIoQQAAAAQQigBAAAAhBBKAAAAACGEEgAAAEAIoQQAAAAQQigBAAAAhBBKAAAAACGEEgAAAEAIoQQAAAAQQigBAAAAhBBKAAAAACGEEgAAAEAIoQQAAAAQQigBAAAAhBBKAAAAACGEEgAAAEAIoQQAAAAQQigBAAAAhBBKAAAAACGEEgAAAEAIoQQAAAAQQigBAAAAhBBKAAAAACGEEgAAAEAIoQQAAAAQQigBAAAAhBBKAAAAACGEEgAAAEAIoQQAAAAQQigBAAAAhBBKAAAAACGEEgAAAEAIoQQAAAAQQigBAAAAhBBKAAAAACGEEgAAAEAIoQQAAAAQQigBAAAAhBBKAAAAACGEEgAAAEAIoQQAAAAQQigBAAAAhBBKAAAAACGEEgAAAEAIoQQAAAAQQigBAAAAhBBKAAAAACGEEgAAAEAIoQQAAAAQQigBAAAAhBBKAAAAACGEEgAAAEAIoQQAAAAQQigBAAAAhBBKAAAAACGEEgAAAEAIoQQAAAAQQigBAAAAhBBKAAAAACGEEgAAAEAIoQQAAAAQQigBAAAAhBBKAAAAACGEEgAAAEAIoQQAAAAQQigBAAAAhBBKAAAAACGEEgAAAEAIoQQAAAAQQigBAAAAhBBKAAAAACGEEgAAAEAIoQQAAAAQQigBAAAAhBBKAAAAACGEEgAAAEAIoQQAAAAQQigBAAAAhBBKAAAAACGEEgAAAEAIoQQAAAAQQigBAAAAhBBKAAAAACGEEgAAAEAIoQQAAAAQQigBAAAAhBBKAAAAACGEEgAAAEAIoQQAAAAQQigBAAAAhBBKAAAAACGEEgAAAEAIoQQAAAAQQigBAAAAhBBKAAAAACGEEgAAAEAIoQQAAAAQQigBAAAAhBBKAAAAACGEEgAAAEAIoQQAAAAQQigBAAAAhBBKAAAAACGEEgAAAEAIoQQAAAAQQigBAAAAhBBKAAAAACGEEgAAAEAIoQQAAAAQQigBAAAAhBBKAAAAACGEEgAAAEAIoQQAAAAQQigBAAAAhBBKAAAAACGEEgAAAEAIoQQAAAAQQigBAAAAhBBKAAAAACGEEgAAAEAIoQQAAAAQQigBAAAAhBBKAAAAACGEEgAAAEAIoQQAAAAQQigBAAAAhBBKAAAAACGEEgAAAEAIoQQAAAAQQigBAAAAhBBKAAAAACGEEgAAAEAIoQQAAAAQQigBAAAAhBBKAAAAACGEEgAAAEAIoQQAAAAQQigBAAAAhBBKAAAAACGEEgAAAEAIoQQAAAAQQigBAAAAhBBKAAAAACGEEgAAAEAIoQQAAAAQQigBAAAAhBBKAAAAACGEEgAAAEAIoQQAAAAQQigBAAAAhBBKAAAAACGEEgAAAEAIoQQAAAAQQigBAAAAhBBKAAAAACGEEgAAAEAIoQQAAAAQQigBAAAAhBBKAAAAACGEEgAAAEAIoQQAAAAQQigBAAAAhBBKAAAAACGEEgAAAEAIoQQAAAAQQigBAAAAhBBKAAAAACGEEgAAAEAIoQQAAAAQQigBAAAAhBBKAAAAACGEEgAAAEAIoQQAAAAQQigBAAAAhBBKAAAAACGEEgAAAEAIoQQAAAAQQigBAAAAhBBKAAAAACGEEgAAAEAIoQQAAAAQQigBAAAAhBBKAAAAACGEEgAAAEAIoQQAAAAQQigBAAAAhBBKAAAAACGEEgAAAEAIoQQAAAAQQigBAAAAhBBKAAAAACGEEgAAAEAIoQQAAAAQQigBAAAAhBBKAAAAACGEEgAAAEAIoQQAAAAQQigBAAAAhBBKAAAAACGEEgAAAEAIoQQAAAAQQigBAAAAhBBKAAAAACGEEgAAAEAIoQQAAAAQQigBAAAAhBBKAAAAACGEEgAAAEAIoQQAAAAQQigBAAAAhBBKAAAAACGEEgAAAEAIoQQAAAAQQigBAAAAhBBKAAAAACGEEgAAAEAIoQQAAAAQQigBAAAAhBBKAAAAACGEEgAAAEAIoQQAAAAQQigBAAAAhBBKAAAAACGEEgAAAEAIoQQAAAAQQigBAAAAhBBKAAAAACGEEgAAAEAIoQQAAAAQQigBAAAAhBBKAAAAACGEEgAAAEAIoQQAAAAQQigBAAAAhBBKAAAAACGEEgAAAEAIoQQAAAAQQigBAAAAhBBKAAAAACGEEgAAAEAIoQQAAAAQQigBAAAAhBBKAAAAACGEEgAAAEAIoQQAAAAQQigBAAAAhBBKAAAAACGEEgAAAEAIoQQAAAAQQigBAAAAhBBKAAAAACGEEgAAAEAIoQQAAAAQQigBAAAAhBBKAAAAACGEEgAAAEAIoQQAAAAQQigBAAAAhPjOsANA2brl6sVsNnuR3sTR1pt5NZvNvt/6n/v/m+cHvtn72Wz28cF/dpX+/bT1v/u4Xsw/+UgBALvo1uu1gQKAjG2FDpuQYfvfZ5m+8putsOJTCjBu14v5bQavDQDIhFACADLRLVevtsKHzf/7ZYXP5zqFFbepsuJqh/8/AECFhBIAECAFENs/rxt/Dpug4ioFFSoqoGIPjp3NHhw923h4BO1bNpVZ27b/M9VakCGhBACMLC2+X6VFtwBiN3cpoLjs/9WnAsrQLVcPj5jNtgKHp/S1GdrmiNntgx99cWBiQgkAGFgKIY62fnJZhJfsJgUUl+vF/GHDTWBCW8HDJnw4Sv/WdNzseiusuBJWwHiEEgDwREKIyX2uolgv5peNvXeYVLdcHW31uHmVeYPdsd1vHTMTVMBAhBIAcIC0UD9OIUSNzShLcZ8qKC40zITDbVU/HG2FDwLWb7vZDir0rID9CSUAYAdpwb4JIY4b3inM2V0KKM59MYDHbVVAHAkgBrWZh670w4HdCCUA4Cu2goj+541xKkp/HvwiHfHwpYCmPaiCONJsd1Ifto6bCUvhC4QSALBFEFGd+xROqJ6gKY6YZelmKyw1H0EilACAPxfw/eL9RBBRtb564kzvCWrULVevto6XqYTIn4ACEqEEAM1Ki/iT9KNHRDvuUjhx0fpAUK5U1bVdDaEnRLk+pHDCnESThBIANGXreMapkubmCScoiuNl1XPcjCYJJQBoQrdc9Xfsn7k5gy8QTpCtFEScOJbRnOt01bF5ieoJJQCoWuoVcWoxzw6EE2RBRQRb7raqJ9wkRJWEEgBUZ2tBf+acNQfovwScrhfzS4PHlDTc5RH90Y7zVD3haAdVEUoAUI0URpymH0c0eCq3dTC6dLTsVMNd9vA+zU3CCaoglACgePpFMDJfABhct1xtbv5xtIxDmZuoglACgGJthRFvPUVGdp/OdJ8ZaA6lKoKRvE9HzvScoEhCCQCKI4wg0E1a/DvSwc665eoohRF6RTCWTc8JDTEpjlACgGKknhF9GPGjp0awd6ls2uKfr0pHNPow4qVRYiL3KTh1ixDFEEoAkD0NLMlUv/g/cUsH29z+QyZUdVEMoQQAWUs7jefCCDL2IYUTqiYaJjwlUx9SOKEZJtkSSgCQpXQG+1zZM4XoqyaO7Uq2RxhBAe7TcbNzD4scCSUAyEpqYnmuIRyF0muiEcIICnSTqro+enjkRCgBQDa65erMAp8KWPhXLh0r0zOCUv3iemNyIpQAIFw6qnFhgU9FdMCvkLmKighPyYZQAoAwqfz5wlENKvY+hROOcxSsW65epWNlr1sfC6qjaoJwQgkAQnTL1XEKJBzVoHY3qQmm7veFScFp/4Xtx9bHgqqZowgllABgUqmR5YUdRxrjdo7CdMvVaQokBKe0wJEzwgglAJiMRT7MfrDoz5ujGjTuQ+o14cgZkxFKADA6vSPgL96vF/MTQ5IXRzXgs7tU2aUJJpMQSgAwKr0j4IvsRmbErRrwRT+tF/NzQ8PYhBIAjMKuI3xT31zuSDARxzwF3+QGIUYnlABgcOlMdr/r+NLowqN0vQ+iOgJ2Zp5iVP8wvAAMqVuu+rPyVwIJ2En/e/IxBXlMpFuu+pL03wUSsJPNPHVkuBiDSgkABpHKoPuF/lsjCnu7T0c5NJYbkSoueDI3CDE4lRIAPFla6F8JJOBgfSPYKxUT40lXEqvigqf5rVuuhBIMSqUEAE/idg0YlIqJgbmSGEbhBiEGI5QA4GDdctV3rf/ZCMKgBBMDSZUnl3pHwCjcIMQghBIA7M3OI4xOMPFEqenub0W/CcjfXbqZw1zFwYQSAOylW65epJ1H57JhXIKJA6Uz73rcwDTMVTyJUAKAnW01tNQ/AqahPHoPqYpLM0uYnmCCg7l9A4CdpFLofwskYFIv060c3xv2x6XQ9FYgASE2NwgdG372JZQA4JvSVXrOZkOMl+nIFF+RQlNVXBCr//1bpt9H2JlQAoBHpbPZvxolCPU6/S7yQLoF6DeBBGTjN8EE+9BTAoAvSuXi55rFQVZ+Wi/m5x7JnzS0hKz9sF7Mhal8k1ACgL/RLA6ytlgv5k0f50hzVD8GrzN4OcDXNT9f8W1CCQD+QiAB2Wu6y705CoriVg6+SU8JAD6z2Ici9L0TLlq8kSPdsPHRHAXF2NzK8coj42uEEgD8wXV6UJT+97Sps9ppjupD0+cZvBxgd4IJHiWUAGB7sa97PZTjTbqut3rmKChesxVefJueEgCNs9iH4v2r5vPa5iioyk3qMfHJY2VDpQRAwyz2oQqXte4+mqOgOi/TdePwmVACoFEW+1CN5zUu8rvl6sQcBVV62y1Xggk+c3wDoEECCajSYr2YX9bwxrrl6mg2m/2ewUsBxvPDejFvqmEvXyaUAGhMKvO+FUhAde5ns9mr9WJ+W/IbE5pCM+5Tf4lqe+KwG8c3ABqSAgmLfajTs9KvCRVIQFOe1dwTh90JJQAasRVIvPTMoVqvS70mVCABTep74lRx7IzDOb4B0ACBBDSlL4l+UdKVewIJaN4v68X8rPVBaJVKCYA2XAgkoBlFHePolqsXAglo3s+pwS0NEkoAVK5brvovJ288Z2jKm265Os79DacqrkuBBNCHqfpLtEkoAVCxbrnqSyHfesbQpPOcF/iOlQEPPC+9WS+HEUoAVKpbrk76ckjPF5rVL/BzbnrpWBnw0Ju0fqEhGl0CVCidy/zdswVms9k/14v5bU4DkY6VqeICvqRv1vsqt3mL8aiUAKhM6mLvei1gI6ty6HRlqUAC+JqimvXydEIJgIqkM9oXmsYBW17n0tU+lWX/msFLAfL2OgWYNEAoAVCXS2e0gS8I33VMVVzn0a8DKMaZ2zjaIJQAqEQ6o/3a8wS+4Hlk87itmzZUcQG7coyjERpdAlQgfdn4zbMEHtE3j3uxXsw/TTlIrv4Enui/1ov5lUGsl0oJgMKlkmiBBPAtz4KuCD0XSABPoFqickIJgIJt7UAC7OJ0yjPabtoABtAfPzszkPUSSgCUzRltYB+TVUukGz/ctAEMYdJAlWkJJQAK1S1XSqKBQ4y+uO+WqxfpNiCAITxze0+9hBIABeqWq+PZbPajZwccYIpqiUtVXMDA3qbAk8oIJQAKk/4ga/oEPMVo1RKquIARWf9USCgBUB47kMBTjVItoYoLGNnr1K+GigglAApiBxIY0KDVEqq4gIm4iaMy37U+AAClsAPJI+5ns9nHHQao/9L43ECS9NUSxwMGCaq4gCn8US2xXsxdiV4JoQRVSDs9rzxNkiHL+vovelfrxfxT5OCmz7gdyLbdzGaz2/SZ7H/6z+THQz+b3XLVz5nfp9+XzRz6uvVBbtDZEHOLKi6+Ynve+rQVnt6uF/PbXQdtq1z/xYMfc1a7zgZe7xGoW6/Xxp9ipVLRfiH0xlNkRO/Xi/lJ5AB3y9WVxVdT+sqHq/TzccrdoBRWvEqLvSOVFU1YrBfzg6/vTF8Yf299EJldb4L8FDrsUr31ZGktuJmzhKtt+S/VEnUQSlCsVMp+oVSUCXxYL+bHUQPdLVd9M7pfPejq3aTy98upFvO7SAv+o1TmLwCu08FzXKriuvW3uEnXm/A0ty+GKSg7TnOXCp56ha7PGI5QgiKlnbwriyAm8q+oL4npC+FHn/Vq3aRw9XKfUuZIKRDuf962/vBqsl7Mu0PeTrdcXQqrmnGT1l6XJe1Op7+j/Zx1IqCo0j9L+fvJ1wklKE7albnyh4WJ/LJezMO6PHfL1Uef9ercpSDiouSFVJqLj9O1kj6jhTsklFDF1YTigtPHpIDiNM1djqbVIfyILU8nlKA4dmWY0N16MX8RNeDdctWHIT974NXoS53Pn3J2P1epem2z0FfVU6B9QwlVXFWrKoj4mm65OknVE3pQlK3vwfQiuiE5T+P2DYqSdmUEEkwlLHlPX/IEEnV433cJr3lxn443naTqidP048tqOX454JXq6VSXu9TT5ryVUvj1Yv5HxdpWqOpIWpmepfXaeesDUTKVEhRDd28m9m69mJ9GDbrbNqpQfRjxmLQLeaZEOnt7H1FzbKMqH9JRsuoquPaVqn/OhBNFCq1s5emEEhRBd28m1u8YvYoqBbTgL17TYcRD6fN8Zv7OysG74o5tVOE+PX/z1BekyolzGwPFedLVxsQSSlAEzf6YWNgfNgv+ogkjvmLrWIcjSTHuNlc3pusbD/6MquIq2n36sn3u/P23pZuGzlV7FcP1oAUTSpC9brm6UErHhEL/qFnwF+k6hRHFXJEXJYVuFz7joxsshNiWjuT8VsQIsE0YcSCBanH+h894mYQSZM0CiImFdnBOuzJLD70Y/eflNDVLYw/ps65R4nA25fiDhhDbHKMskjBiIOlIx4Wq3ez9tF7MNbwskFCCbKU/AFcWQEwo7I9ZWvB/VCZajHepOsJC/0CqJp7k/kElxMex/wtVLRbHHDUCV3Vn72a9mL9qfRBKJJQgS76gEeB6vZgfRQ18t1z1YciPHnz2+rL4E0c1huOzv7PrTTXEFCHENrdfFeU6zVF624wk/T5c2jTL1j99/svzXesDQLY0FmJK9+mO6xCpKsiXsvzZeRxBf/VuamZ8bpH/FzdbIUR0COaIUv7u0nEytw+MrP99TJVeV45zZOk0/VAQoQS5ctcwU8lhV8n5x7ypjhhZ35cjBRMtH9m7e9AXIovwK5Wr2yTIm8B0YmmsXznWlKVjoUR5HN8gSymBDtu5pgm3YzWE24fmltn7kAIJi/0JNNZLaPTmlE/liuLsCUwzoCl7lv419TE3nkYoARCoW65u7UJmyc0aQSoPJsL6QhzCLnDW3qc5SmCaAcFEdtzCURihBEAQXbyzdZN2H+2yBKkomLhJ7+OytN1szS2zdZ/mJ70jMuPWuKy4haMwQgmAAO78z5bjGpkodIF/t3VV52XJn6NuubpyXWt2+pDr2M0C+RJMZMUtHAXR6BIgxplFS3Z+WS/mZ60PQi76SpW0W5/zAv/+QQhRxQI4laILJPLiuEYBCpm3WnHk5qByqJQAmFhqHvffxj0b+kdkLMNmsNdbzSmrbDCo1012nI8vjONPWfiwXsyPWx+EUgglACameVxW+kDiSP+IvAU3kbvZqobI5qrOsXTLVX+V3q91vrvi6B9RMM0vw92vF/PvGx+DYgglACakSiIrGloWpFuu+p3iHyd4xXcPQohmziTrdZMVgWkFhHzhXA1aCD0lAKalZ0EebtKC3/nsQqwX89P0pXnoKqNNX4jL1kKILzgVSGRBYFqJ/thNan6pOjJGf3zD71EBVEoATESVRDYEEgUb4FaI+weVEBasqiRyYn6qULdc9fPMy9bHIcD1ejE/au5dF0ilBMB0VEnEs+Av33GqatgnmLjeqoQQQnyZKol45qd6bXbs/Y5Nyy1ChVApATABVRJZsOCvyDd6TFR/Q8aQVElkwfxUOTdyhNFXogAqJQCmoUoilgV/ZVKPifO0A9l/qe6f7UchxEFUScQyPzWgn5u65erdRA17+Y8jfSXyp1ICYGSqJMJZ8MNXqJII55aNhqTftyv9JSb1fr2YnzT0fov0j9YHAGACqiTiCCTgcaok4ggkGpP+FvmCPC2NLgsglAAY0UhXGLKbfsF/LJCAR50anjCu/WxQeubvWh+HCT1PazEyJpQAGJcFf4zNDuRti28edtEtVyeqJML8tF7MLxt97/xZQXlnHCbzqpH3WSyhBMC4hBIx7EDCtzlaFqM/437e4hvnT6mCz+/fdIQSmRNKAIzELmSYX+xAwuO65aq/teS5YZrcjaZ7zP4MJi7S9cWMTyiROaEEwHhUSUzvw3oxt/sE32Z+mt59usIWNvy9msaLFt5kyYQSACPolqsjV35N7k5Xc/i2dE3xa0M1uRN9bti2XsyvVEtMwnyXOaEEwDh8OZ6emzZgN3Znp/fOsTK+wu/jBFIYS6a+82CASOmPxCB/KNKOQzjXgIb4SWNL+LY0PzlCMK07Xzz5mn7t0i1X13bzR9evNVUqZUooUYlUKn6SFhoa69GkbrnaXAMZ/eVUlcS0rnWyh51ZJ0zvRBUX39CHVr8bpFH1zS6z2Lzi7xzfqEC3XJ2nieythQaNe5bJbpQGctO5FwLBXsxP03qXSxUf+dJbYhLfN/AeiyWUKFy3XPVfwH5sfRxgS+huVLdcvXLN3qTONI6D3aT5SQPe6Ti2wT4ujNaoXAuaMaFEwdId4z+3Pg7wQHQjMbuQ03FsA/ajqmhajm2ws/VifpGq/xiHSomMCSUKlXY7JKrwV/cZdDfXQG46vmDBfvzOTOeDYxscwNp+PColMiaUKFDqnH2hfwT8TWgg0S1XJ34vJ/OLYxuwu1RdaX6ajqo5DqH6bzzmv4wJJcp07kwofJEqiTbcWbjB3lRJTEdoykHS5+bG6I0jXUNPhoQShemWq9N0ywbwV6FHN1IF0xvPZBJnzmnD7sxPk7oXmvJEjnCMRyiRKaFEQbrl6mg2m/3a+jjAV6iSaMNNagYG7M78NB2hKU8VvZ6pmWaXmRJKFCLtcpik4OuiG4pZ9E/DOW3Yn/lpGnduBOKpHOEYlWaXmRJKlONKgxZ4lKMb9bvWzR72Y36a1FlD75Vx+VtHU77zuPPXLVcaW8LjPgSXy9qFnIYF/1ekL552gPiS/2lUJnHnaBkD6jdafjSgg3N8I1NCicylKwZNSvC46KNNR8H//S1QJfFA6jN0kkIxlXQQy7ENBtP/veuWq3tz++CE95kSSmQsXVvjjxw87l6TyybYgUxSVcSFknzIxr05ihF8nM1mrw0sLdBTIm8nElJ4VL8QPIo8upF2q/2ejktZdNItV/0uz61AArJy7sYNRqA6kGaolMjbZSozcv4J/upT+mN9kcFCUJXE+FSM/SeQ0PQY8iM0ZQz9fP+zkR2U4xuZEkpkbL2Yf/SFB7Knn8S4lEX/x4VAArLzPl3hCINKfSUM6rD8Dc2U4xsAB0pn+92MM65LZdF/fNbOfNYgS0JTxnRjdGmBUALgcCqZxtf8gj81PVbCC/m5cysQI1OFQxOEEgCHc3RjXBb8fzrL4UUAf6PfDWP7aIRpgVAC4HBCiXGpkvizueXbDF4K8HfNz1GMTqXEwNKtaWRGKAFwgFRS/9zYjcqC304s5OqDfjdMQChBE4QSAIdxrdS4blrvaJ92c15n8FKAv7s0JkxA8EUThBIAh1H+Ny4Lfr0kIGfmKEa3Xsz1lKAJQgmAw6iUGFfTC35VEpA1RzcABiSUADiML4zjubM7pEoCMqZKAmBAQgmAPencPLqmrwFVJQHZE0owpTujTe2EEgD7c3RjXE2HEqokIGuObjA1N3BQPaEEwP6EEuNqdhdSlQRkr/XQFGBwQgmA/b0wZqO5a3wXUpUE5M3RDYCBCSUA9mcnezzN7kKqkoDs9aGpUnqm5jNH9YQSAHvolitHN8bVcmn0aQavAfg6RzeIIJSgekIJgP04ujGuJq8C7Zar/nP1JoOXAnydoxsAIxBKAOxHpcSI1ot5k6GEXhJQBJUSRPjeqFM7oQTAfoQS47mu9Y09JlVJvM33FQKa8BLIumNYrW5+ZE0oAbAfOxbjafXcrCoJyJ8qCaiAcDFPQgmA/bgdYTzNhRKqJKAYdleJYjOE6gklAMhFizuRJxm8BuDbVEoQ5aWRp3bfecIwnLTreer83yj6XaqzyLK7brk6ivrvbkRTJZXdcvW9a0ChDA034QUYnVACBtItV/2O52/GczSvUwmjneVKNbjo7wOJZxm8DuBxN8aHCDZDBtdkQ+0SOL4BA+iWq2OBxCSOg//7LQ7Gc1/rG/sSVRJQlFab8BJPPwmaIJSAJ0pfLs6N4yR0TK5Xa1USx6okoBiObhDFcWCaIOJRTZQAABwZSURBVJSAp+t3O58bx0lE71ZZHDAU14BCOQTiRHlh5AclYMyUUAKeQAl2c5RRjqeZhULqPyPIhHL4IkMUocSwBIyZEkrA05wrwZ6UK9nq1dJCQZAJwC5eG6VBCSUyJZSAA3XLVV/K/9b4NcXigCdJndTdOQ8FWS/mAnEml66ZZ1iqnjIllIDDaW45PQk3pdNLAoBd6GNFM4QScIC022nXfHoS7npVvxOZdr3MGwDsQigxMFVP+RJKwGEujFtblFEyAFUSAOzqyEjRCqEE7Enn/FCRlRJCCQ6WQi09aKA8N54ZQVTWDeu6pjdTG6EE7CFdAaqXRJD1Yq6nBKU68eSgSP7uMLl0TBiaIZSA/Zy6AjTMXaPvm8KlMNM1oADsSj+J4eknkTGhBOxHch1HHw9KdSzMBGAP1pvDu63tDdVEKAH76Y9u3BuzSfUVEj+tF3NNAimVzy6Uy441Ed4Y9cEJJTL2XesDAPtYL+aXs9nse4MG7KJbro41xoWiqXJiUunvBsNzrXzGVEoA7EYpJYfQSwKAfVhvDO9es/S8CSUAYATdcvXKlW4A7EmlxPBUSWROKAFADmo8FqVKAirQLVcvPEemkMJsR/6G5+aNzAklAMhBVc3k0jWgbzN4KcDTCSWYyomRHoUml5kTSgDA8FRJQD00uGYqjm6Mw/GNzAklAMhBbYt+u11QD9eCMjpHN8azXsyFEpkTSgDsRunfuKpZ9HfL1YmFJVTF8Q2moMJuHNc1vqnaCCUAdiOUGFdNlRKqJKAuQglGlfoQOboxDk0uCyCUACAHL2t4Cq4BhSr5nWZsfSDxzCiPwtGNAgglAMhCJdfuKb+FCrkWlJH52zEelRIFEEoAkIsa+koov4U6aXbJKLrl6qiWasEM3awX80+tD0IJhBIA5KLoRX9aWCq/hTodea6MRB+i8aiSKIRQAmA3kvbxlb4T6UsL1MvvN4NLx4LeGtnRCCUKIZQA2IE7ridR+qJfeTfU62W6IQGGdGY0RyWUKIRQAoBcPCu8mZwvLFA31RIMRpXE6PSTKIhQAoCcWPQDuTI/MSRVEuNSJVEQoQTA7u6M1ehKXvQ74gN1c7sOg1AlMYnLBt5jNYQSALu7NVajK3nRb1cG6va8W670jmEI50ZxVPfrxdzf5IIIJQDIybNSF/3rxbzflbnJ4KUA43F9I0+Sro9+YxRHJZAojFACYHfK86dR8qK/f+33GbwOYByOcPBUqiTG5+hGYYQSALvTxXkaxS7609WxfaXHdQYvBxieIxwcrFuuTvvrZY3g6IQShRFKAOxOKDGNohf968X8dr2Y9+W5/5zNZj/NZrMPKaRQQQF1OPUc2Ve3XH3vxo1JfHAVaHm+a30AAPbg+MZ0Tkpf+PfhRCrTVao7gLSg78f0WfFvhtId959HX3zY04X5axKqJAqkUgJgdxag09FMjocuLejJxDNzFPvolqtjzS0nI5QokFACYEepXwDT6G/hsOjnD+kc9mujQUYc4WAnqcrrwmhNwtGNQgklAPajL8B0hBLMUn+RX40EmXkuOGVHjm1MR5VEoYQSAPtRLTGd1+k+dxplh5HMCSV4VKrycmxjOkKJQgklAPZza7wmZdHftjPX55ExwSlflaq83LYxnfeObpRLKAGwH6HEtN52y9WLlt4wf0qN4X40HGTO7Tr8zVaVl2Mb01ElUTChBMB+HN+Ynp2mxji2QUFe6i3BF1yo8prU3XoxF0oUTCgBsB+VEtNTLdEe139SEsEpn3XL1Zk+EpMTYhdOKAGwB9eChrHgaITrPynQ8/RFlMalqpmfWx+HANYIhRNKAOzv2phNTkO5Brj+k4KdquhqW5q/fmt9HAJ8WC/mqlgLJ5QA2J8/fjHshFQs9ZFwJphSPTNHtSsFEletj0MQzWYrIJQA2J8jHDGUSNetDySetz4IFO11ujWGhqQKmSt9cEL0DS6FQRUQSgDsTygRR4l0hbrl6kIfCSpxYY5qx1aFl0Aiho2KSgglAPYklQ+lRLoyqTHc29bHgWqYoxqRAokrV3+GuXfkrx5CCYDD3Bi3MK/TDQ0ULgUSGsNRm9eOmtVNIJGF8/Vi/qn1QaiFUALgMKolYv2aGotRqHSbikCCWv3sxqA6bfWQEEjE0uCyIkIJgMPoKxHvMu1WUZgUKCm7pXaX+kvUJc1dHwUS4d6rkqiLUALgMCol4j13drs8W1fnaQxH7Z4JT+th7sqK41GVEUoAHGC9mN/2V1EZu3BvnN0uh0U9DXopPC1f6n9j7srD+7QGoyJCCYDDqZbIw89pwUjGBBI07E269pYCpeD7N3NXNmxEVEgoAXA4oUQ+ftP4Ml+p4Z9Agpa9FUyUpT92k57Zz62PRUZUSVRKKAFwOI368nIlmMhPqmL5XSAR4v81+J5z9tZxszJsVXa9bX0sMuP3p1JCCYADpc7PN8YvG88EE3lJgYRrP+P8n1bfeMb642auMsxYt1wdu/IzS6okKiaUAHgaRzjyIpjIRCp7FkjEuZ/NZv+r1TefuR8d5chPOq7RB0ZLlV3ZuVclUTehBMDTOMKRH8FEoLSwV/Ycr/9y9b9bH4SM6TGRka3jGj+2PhaZOlclUbduvV63PgYAT9ItV5/sqmSp31k5Xi/mqlkmkhb2fVD3vIk3nK+79WL+YvbnM+mfx5vWByRj12me+tT6QERJfT40s8xX/7f8hd+RuqmUAHg61RJ56oOi310XOo2te/wFEvG2y5zNT3l7rbIrRj/m3XL1USCRvTOBRP2EEgBPZ9Gft980lhvP1rV57vHPQ18lsX0swPyUv5cpmDhufSCmkqoj/q2ZZfb6+czf7wY4vgEwAEc4iqBMemCOa2Tpvx4eWXKEoyjv7AyPp1uujmaz2YU5qxh/m8+ok0oJgGHYjcxfXyZ9mxalPNHWTqPFfT6uv7KANz+V40fHOYbXLVcvUjj3uzmrGB8EEu0QSgAMw6K/DJs+E+f9sYPWB+MQfajTLVe3zmFn6fQrL8r8VJb+SMG/U/DHE6TjZf04/rdqoaLcPzKfUSHHNwAG4ghHce5ms9mJnZjdpBDn3FWf2Xq3Xsy/uohPfT88u/KYpw7ULVenqemrv8vl+WW9mAvlGqJSAmA4diPL8jxVTVyomnhc2mm89aU2W/cPbtz4EvNTmbbnqRetD8Yu+puAUjXXrwKJIt0JJNqjUgJgIOkM8L+NZ5HuU3M5Xb63pGs+z5zBzt5Pu3x20xc1z7Jsv/QVSxph/p35qhqaWzZIKAEwIIv+4t2lcOKi8vf5KIv7otysF/OdmiKmihe9QMp3n45SCSfMV7V5v17MT1ofhBYJJQAGlM6w/mpMi9dkOGFxX6R/rRfzj7u88FT+/9+tD1hF7tP1ln04cdvSG0+f5ZPUDNERjTr0n+cXgrY2CSUABpR6E/xfY1qNu61Ff5ULJYv7oj3a3PJL0rWIbiGoz4c0T1Vd9p6udD7R36ZKi/VirvdNo4QSAAPT5b5a7/uAopZFf6qKOPYFtVh9YPZq37Asfan7vfXBq9gmSL2opXpiKzg9UcVVrQ/rxfy49UFomVACYGAW/dW7SzcZXOxaNp+DVMVzlIKIY1URxTt4V1Hvm2bcpIDisrSAIgURxymIeJnBS2I8jm0glAAYQ7dcfbSQasJ9Ciiu0sI/q0VVuhHmKP2oiKjHk3YVU5XMb60PYmNu0lx1mWuYmgL94zRf+fvZDsc2EEoAjMGiv1l3KaDoF/0fpzzqkSohNiHE5l/VEPV58q5i+qzc+nw06z7NU1dTz1MbD+ar/ud16w+lUXv3xaFOQgmAkSiRJrlLXwD7oOLT1r+z9IVg5y+XaSext1nQv0g/r3zBbMYgu4quB+WBmzQ3fZ6rhggrtsKHzVx1lP71t5H+M3fk2AYzoQTAeCz6gYEN1gxOtQR7uNkKUmepwuKhTeiwISjlW3a+zpj6CSUARmLRDwxo8GZwglMgyE/rxfzc4LPxDyMBMI705cEfXWAIxyOUOZ+nsANgKh8EEjwklAAYl0U/8FTvxmhGKDgFJnaXrnmFvxBKAIzIoh94opuRu9MLToGpjFHxRQWEEgDjs+gHDnE/9q6i4BSYyE8aW/I1QgmAkVn0Awc6nWgRLzgFxvReHwkeI5QAmIZFP7CPfhF/McWIpeB0zCMiQLtuzC98i1ACYAIW/cAeJl/EpwDkzkMCBnSvjwS7EEoATMSiH9jBH30kghbxuuIDQ+oDiVsjyrcIJQCmZdEPPGaqPhJ/k64d/eDpAAP4YYyrjKmTUAJgQhb9wCPeTdVH4hGn+t8ATzRZTxzqIJQAmJ5FP/DQ9XoxD+87k0qtdckHDvVhvZirCmUvQgmAiVn0Aw/0vWaOcxmU9WJ+lpptAuzjxjFVDiGUAAiQFv2aXgK5dqd3WxCwj34uO3LTBocQSgDEsZsAhDW2fEzqf/Ou+acD7EIgwZMIJQCCWPRD837JvBmcii5gF0c5hquUQygBEMuiH9r0Ph3jylba9VTRBTzmB4EETyWUAAhk0Q9NuimlO32q6Polg5cC5OcHV38yBKEEQDDHOKApfXf6o5LesNs4gC8QSDAYoQRAHiz6oX653rSxi5P0+gHeCyQYklACIAOOcUD1Nt3pb0t8o+nMuGtCgfelHD+jHEIJgEykRf9PngdU6bj0ZnBpZ/R9Bi8FiCGQYBRCCYCMrBfz89ls9sEzgar8kHrH1ODUUTNokkCC0QglAPJzYtEP1aiqGVw6anasvwQ0RSDBqIQSAJnZ6i9h0Q9lq7I7feqL4QsKtEEgweiEEgAZ0lQOild1d/r1Yn6pBw5UTyDBJIQSAJlKX2jeeT5QnCYW8qkHjsaXUCeBBJPp1uu10QbIWLdc9TuSbzwjKEJzC/luueoru15m8FKAYbxbL+aqNZmMSgmA/Gl8CWVodWfxyBwF1fhBIMHUVEoAFKBbrr6fzWZ9c7lnnhdkqelS5265ejWbza7MUVC0Kpvzkj+VEgAFSDdyHLmRA7LU/Nnr1JzXHAVl6n9vFwIJoqiUAChI2o38t2cG2fhlvZifeRx/6parPpj4PYfXAuykDySOUrAIIVRKABQkLRp+8MwgCz8IJP5qvZhfmaOgGDcCCXKgUgKgQN1y1ZeK/+bZQRhnrx9hjoLsbQKJTx4V0YQSAIWy6IcQfanzqUDi28xRkK3m++CQF6EEQMEs+mFSzl7vyRwF2dEHh+wIJQAKZ9EPk7ibzWbHAon9maMgC32oerJezC89DnIjlACogEU/jMrZ6ycyR0EooSpZc/sGQAXS+XYd72F47wUST2eOgjDXs9nslUCCnKmUAKiI3UgY1Lv1Yn5qSIeT5qjz2Wz2rJb3BBnTP4IiCCUAKiOYgCdzw8aIuuXq1Ww2uxJMwGju03GNK0NMCYQSABWy6IeDOXs9AXMUjOYmzWG3hphSCCUAKmXRD3u7Tot5/SMm0C1X36c56mX1bxam4bgGRRJKAFTMoh92pn9EgDRH9cdk3jT35mE4jmtQNKEEQOUs+uFR7u7PQLdc9XPU29bHAQ7wIc1hKrwollACoBHdctV3vP/R84bPnL3OiCa9sBcNeamGUAKgIRb98JnjGhnSCwd2cp2qIwSqVEEoAdCYtOjvS9Wfe/Y0yNnrzOmFA1/Vz19n68X83BBRE6EEQIPSor8PJl57/jTE2euCOHIGf6E6gmoJJQAa1i1X/dVhP/sMUDnNLAvVLVfHqVGv4xy0Su8IqieUAGhct1wdpaoJi35qZHexcN1y9SLNUY5z0Jr3KZBQ3UXVhBIAOM5BjewuVkZlFw25SfOX3jc0QSgBwGfdctXfRvCrEaFwekdUKlV2XWjUS6U0sqRJQgkA/iLdznGhVJoC3aUwwu5ixVJl15kmmFTGUQ2aJZQA4IuUSlOYX2az2bkFfTtUTVCJ6xRGfPRAaZVQAoCvUjVBATSybJiqCQqmsgsSoQQA36RqggxZ0PNZqpo4F6BSgLvUN0ITXkiEEgDsJF3Ld+GGDoK5VYOvSgHqqSuOydB9OmJ25uHAXwklANhLt1wdp3DCop8p3aedcH0jeFQKUPsvfm+NFBkwd8E3CCUA2Fs6x33qSAcTeZfKnS3o2Vk60nGmuosgwgjYkVACgIOlHcl+0fXGKDKC9ymM0MSSg3XL1UkKJ9zSwRT0jIA9CSUAeDI7kgxMGMHg9JtgZDepKkIYAXsSSgAwGDuSPIFSZ0a3dfRMOMFQPqR5y01AcCChBACDE06wh7vUOFUYwWSEEzxRH6JequiCYQglABiNcIJHXPdhhFJnIgkn2NNNqui6FKLCcIQSAIwuhRP9ov+l0W7e+1QV8bH1gSAvQlS+YlMVYd6CkQglAJiMhpjNuku7ixd2F8ldt1wdpxDVPNU2VREwEaEEAJNLV4n24cSxkulq2V2kaGme6sOJE/NUMzY9bi70ioDpCCUACJPOcx8rma7Kh7SzqFcE1UhHO05UT1TpLgWoFwJUiCGUACAL3XL1Ku1Kqp4oz4e0qFfmTNW2qieOBalFE0RARoQSAGQn7Ur2i/43nk62BBE0TZBanJutOUsQARkRSgCQra3jHQKKeP3O4lVa1F8JIuA/UnPM/udIBUU27h/MWXpEQKaEEgAU4UFAcWRnchLXWwt6O4uwg1RBcZLmKdcgT+tma866aumNQ8mEEgAUKe1MHln4D+o67Sxa0MMAUg+KI2HqaG42c5YKLiiXUAKA4m0t/I+UT++sP47xMS3mPwohYHypimJ7rhJS7O5+a84SnEJFhBIAVCcd9dgs+l+5xu+PAOJ2E0CkEML5agiWQopXW3OVqq//uN7MV2nOcoQMKiWUAKAJW4v/TVXFiworKjbhw8etfz8qaYZydMvVJqDYzFe1h6rXab66FZpCm4QSADQtfQF48YWfHAOLTfnyLFU9bP79ZBcR6pVC1e+3AtUXKbTI/fjHJiidPZizZo5fABtCCQD4inQM5FX6326+FMy2vhRs+37P0uvrL/xnfbCwqWr4tBVA3No5BL5kK7DY/Ls9P41RZbEdjt5uhQ6f5y+BA7APoQQAAFRuK7zYePg/f8nn0EHQAIxFKAEAAACE+IdhBwAAACIIJQAAAIAQQgkAAAAghFACAAAACCGUAAAAAEIIJQAAAIAQQgkAAAAghFACAAAACCGUAAAAAEIIJQAAAIAQQgkAAAAghFACAAAACCGUAAAAAEIIJQAAAIAQQgkAAAAghFACAAAACCGUAAAAAEIIJQAAAIAQQgkAAAAghFACAAAACCGUAAAAAEIIJQAAAIAQQgkAAAAghFACAAAACCGUAAAAAEIIJQAAAIAQQgkAAAAghFACAAAACCGUAAAAAEIIJQAAAIAQQgkAAAAghFACAAAACCGUAAAAAEIIJQAAAIAQQgkAAAAghFACAAAACCGUAAAAAEIIJQAAAIAQQgkAAAAghFACAAAACCGUAAAAAEIIJQAAAIAQQgkAAAAghFACAAAACCGUAAAAAEIIJQAAAIAQQgkAAAAghFACAAAACCGUAAAAAEIIJQAAAIAQQgkAAAAghFACAAAACCGUAAAAAEIIJQAAAIAQQgkAAAAghFACAAAACCGUAAAAAEIIJQAAAIAQQgkAAAAghFACAAAACCGUAAAAAEIIJQAAAIAQQgkAAAAghFACAAAACCGUAAAAAEIIJQAAAIAQQgkAAAAghFACAAAACCGUAAAAAEIIJQAAAIAQQgkAAAAghFACAAAACCGUAAAAAEIIJQAAAIAQQgkAAAAghFACAAAACCGUAAAAAEIIJQAAAIAQQgkAAAAghFACAAAACCGUAAAAAEIIJQAAAIAQQgkAAAAghFACAAAACCGUAAAAAEIIJQAAAIAQQgkAAAAghFACAAAACCGUAAAAAEIIJQAAAIAQQgkAAAAghFACAAAACCGUAAAAAEIIJQAAAIAQQgkAAAAghFACAAAACCGUAAAAAEIIJQAAAIAQQgkAAAAghFACAAAACCGUAAAAAEIIJQAAAIAQQgkAAAAghFACAAAACCGUAAAAAEIIJQAAAIAQQgkAAAAghFACAAAACCGUAAAAAEIIJQAAAIAQQgkAAAAghFACAAAACCGUAAAAAEIIJQAAAIAQQgkAAAAghFACAAAACCGUAAAAAEIIJQAAAIAQQgkAAAAghFACAAAACCGUAAAAAEIIJQAAAIAQQgkAAAAghFACAAAACCGUAAAAAEIIJQAAAIAQQon/344dEwAAwDAMqn/Vc7E8IAMAAAAgISUAAACAhJQAAAAAElICAAAASEgJAAAAICElAAAAgISUAAAAABJSAgAAAEhICQAAACAhJQAAAICElAAAAAASUgIAAABISAkAAAAgISUAAACAhJQAAAAAElICAAAASEgJAAAAICElAAAAgISUAAAAABJSAgAAAEhICQAAACAhJQAAAICElAAAAAASUgIAAABISAkAAAAgISUAAACAhJQAAAAAElICAAAASEgJAAAAICElAAAAgISUAAAAABJSAgAAAEhICQAAACAhJQAAAICElAAAAAASUgIAAABISAkAAAAgISUAAACAhJQAAAAAElICAAAASEgJAAAAICElAAAAgISUAAAAABJSAgAAAEhICQAAACAhJQAAAICElAAAAAASUgIAAABISAkAAAAgISUAAACAhJQAAAAAElICAAAASEgJAAAAICElAAAAgISUAAAAABJSAgAAAEhICQAAACAhJQAAAICElAAAAAASUgIAAABISAkAAAAgISUAAACAhJQAAAAAElICAAAASEgJAAAAICElAAAAgISUAAAAABJSAgAAAEhICQAAACAhJQAAAICElAAAAAASUgIAAABISAkAAAAgISUAAACAhJQAAAAAElICAAAASEgJAAAAICElAAAAgISUAAAAABJSAgAAAEhICQAAACAhJQAAAICElAAAAAASUgIAAABISAkAAAAgISUAAACAhJQAAAAAElICAAAASEgJAAAAICElAAAAgISUAAAAABJSAgAAAEhICQAAACAhJQAAAICElAAAAAASUgIAAABISAkAAAAgISUAAACAhJQAAAAAElICAAAASEgJAAAAICElAAAAgISUAAAAABJSAgAAAEhICQAAACAhJQAAAICElAAAAAASUgIAAABISAkAAAAgISUAAACAhJQAAAAAElICAAAASEgJAAAAICElAAAAgISUAAAAABJSAgAAAEhICQAAACAhJQAAAICElAAAAAASUgIAAABISAkAAAAgISUAAACAhJQAAAAAElICAAAASEgJAAAAICElAAAAgISUAAAAABJSAgAAAEhICQAAACAhJQAAAICElAAAAAASUgIAAABISAkAAAAgISUAAACAhJQAAAAAElICAAAASEgJAAAAICElAAAAgISUAAAAABJSAgAAAEhICQAAACAhJQAAAICElAAAAAASUgIAAABISAkAAAAgISUAAACAhJQAAAAAElICAAAASEgJAAAAICElAAAAgISUAAAAABJSAgAAAEhICQAAACAhJQAAAICElAAAAAASUgIAAABISAkAAAAgISUAAACAhJQAAAAAElICAAAASEgJAAAAICElAAAAgISUAAAAABJSAgAAAEhICQAAACAhJQAAAIB/2w6LhvJSJ+iOngAAAABJRU5ErkJggg==" parent="b1j5PnSS1ncNtvrSyaUf-31" vertex="1">
          <mxGeometry x="43.50999999999999" width="90.49" height="80" as="geometry" />
        </mxCell>
        <mxCell id="rqnWyKJm8Vc6jTgM_L1W-4" value="Internet" style="sketch=0;outlineConnect=0;fontColor=#232F3E;gradientColor=none;fillColor=#232F3D;strokeColor=none;dashed=0;verticalLabelPosition=bottom;verticalAlign=top;align=center;html=1;fontSize=12;fontStyle=0;aspect=fixed;pointerEvents=1;shape=mxgraph.aws4.internet;" parent="tGi2XLsGErRzi48nDTFP-1" vertex="1">
          <mxGeometry x="100" y="658.5" width="42.25" height="26" as="geometry" />
        </mxCell>
        <mxCell id="rqnWyKJm8Vc6jTgM_L1W-5" style="edgeStyle=orthogonalEdgeStyle;rounded=0;orthogonalLoop=1;jettySize=auto;html=1;" parent="tGi2XLsGErRzi48nDTFP-1" source="rqnWyKJm8Vc6jTgM_L1W-3" target="rqnWyKJm8Vc6jTgM_L1W-4" edge="1">
          <mxGeometry relative="1" as="geometry" />
        </mxCell>
      </root>
    </mxGraphModel>
  </diagram>
  <diagram id="-pCnoadw4c-YnhOCHsIY" name="Page-2">
    <mxGraphModel dx="1221" dy="725" grid="1" gridSize="10" guides="1" tooltips="1" connect="1" arrows="1" fold="1" page="1" pageScale="1" pageWidth="1169" pageHeight="827" math="0" shadow="0">
      <root>
        <mxCell id="0" />
        <mxCell id="1" parent="0" />
        <mxCell id="wH2rSLt1YKXeHSCVIXTW-6" value="REST API呼び出し&lt;div&gt;（User API）&lt;/div&gt;" style="edgeStyle=orthogonalEdgeStyle;rounded=0;orthogonalLoop=1;jettySize=auto;html=1;exitX=1;exitY=0.5;exitDx=0;exitDy=0;exitPerimeter=0;entryX=0;entryY=0.5;entryDx=0;entryDy=0;entryPerimeter=0;" parent="1" source="X6AYHpFife-kMmc6WTGi-2" target="X6AYHpFife-kMmc6WTGi-4" edge="1">
          <mxGeometry x="0.5128" relative="1" as="geometry">
            <mxPoint x="295.5" y="269.75" as="sourcePoint" />
            <Array as="points">
              <mxPoint x="350" y="271" />
              <mxPoint x="350" y="196" />
            </Array>
            <mxPoint as="offset" />
            <mxPoint x="490" y="192" as="targetPoint" />
          </mxGeometry>
        </mxCell>
        <mxCell id="wH2rSLt1YKXeHSCVIXTW-2" style="edgeStyle=orthogonalEdgeStyle;rounded=0;orthogonalLoop=1;jettySize=auto;html=1;exitX=1;exitY=0.5;exitDx=0;exitDy=0;exitPerimeter=0;" parent="1" source="k7k_gUskmTszR77qQNp9-1" edge="1">
          <mxGeometry relative="1" as="geometry">
            <mxPoint x="238.0005459384456" y="269.75" as="targetPoint" />
            <mxPoint x="180" y="269.79999999999995" as="sourcePoint" />
          </mxGeometry>
        </mxCell>
        <mxCell id="7d-cd-cmj2iiY3BN60c4-3" style="edgeStyle=orthogonalEdgeStyle;rounded=0;orthogonalLoop=1;jettySize=auto;html=1;entryX=0;entryY=0.5;entryDx=0;entryDy=0;entryPerimeter=0;" parent="1" target="a2-S2WaQ287srOwUGOi5-2" edge="1">
          <mxGeometry relative="1" as="geometry">
            <mxPoint x="536" y="197" as="sourcePoint" />
            <mxPoint x="606" y="197.10000000000002" as="targetPoint" />
          </mxGeometry>
        </mxCell>
        <mxCell id="u7sqUFqi7tYirar2iKtI-3" style="edgeStyle=orthogonalEdgeStyle;rounded=0;orthogonalLoop=1;jettySize=auto;html=1;exitX=1;exitY=0.5;exitDx=0;exitDy=0;exitPerimeter=0;" parent="1" source="a2-S2WaQ287srOwUGOi5-3" target="cOqWIxdsFwBTmEWRnDCi-1" edge="1">
          <mxGeometry relative="1" as="geometry">
            <mxPoint x="661.5" y="337" as="sourcePoint" />
            <mxPoint x="771" y="336.5" as="targetPoint" />
          </mxGeometry>
        </mxCell>
        <mxCell id="5SJ6Xt6IqPWJt0fzYDVi-1" value="DB登録・取得" style="edgeLabel;html=1;align=center;verticalAlign=middle;resizable=0;points=[];" parent="u7sqUFqi7tYirar2iKtI-3" vertex="1" connectable="0">
          <mxGeometry x="-0.2825" y="-1" relative="1" as="geometry">
            <mxPoint x="10" y="-1" as="offset" />
          </mxGeometry>
        </mxCell>
        <mxCell id="7d-cd-cmj2iiY3BN60c4-6" value="REST API呼び出し&lt;div&gt;（Todo API）&lt;/div&gt;" style="edgeStyle=orthogonalEdgeStyle;rounded=0;orthogonalLoop=1;jettySize=auto;html=1;entryX=0;entryY=0.5;entryDx=0;entryDy=0;entryPerimeter=0;exitX=1;exitY=0.5;exitDx=0;exitDy=0;exitPerimeter=0;" parent="1" source="X6AYHpFife-kMmc6WTGi-2" target="X6AYHpFife-kMmc6WTGi-5" edge="1">
          <mxGeometry x="0.4878" relative="1" as="geometry">
            <Array as="points">
              <mxPoint x="349" y="271" />
              <mxPoint x="349" y="337" />
            </Array>
            <mxPoint as="offset" />
            <mxPoint x="295.5" y="269.75" as="sourcePoint" />
            <mxPoint x="486" y="337" as="targetPoint" />
          </mxGeometry>
        </mxCell>
        <mxCell id="7d-cd-cmj2iiY3BN60c4-7" style="edgeStyle=orthogonalEdgeStyle;rounded=0;orthogonalLoop=1;jettySize=auto;html=1;entryX=0;entryY=0.5;entryDx=0;entryDy=0;entryPerimeter=0;exitX=1;exitY=0.5;exitDx=0;exitDy=0;exitPerimeter=0;" parent="1" source="X6AYHpFife-kMmc6WTGi-5" target="a2-S2WaQ287srOwUGOi5-3" edge="1">
          <mxGeometry relative="1" as="geometry">
            <mxPoint x="536" y="337" as="sourcePoint" />
            <mxPoint x="606" y="337" as="targetPoint" />
          </mxGeometry>
        </mxCell>
        <mxCell id="RG_HLfE0qHDfHXsBsrbu-3" value="DB一括登録" style="edgeStyle=orthogonalEdgeStyle;rounded=0;orthogonalLoop=1;jettySize=auto;html=1;exitX=1;exitY=0.5;exitDx=0;exitDy=0;exitPerimeter=0;" parent="1" source="a2-S2WaQ287srOwUGOi5-4" target="cOqWIxdsFwBTmEWRnDCi-1" edge="1">
          <mxGeometry x="-0.3695" y="2" relative="1" as="geometry">
            <mxPoint as="offset" />
            <mxPoint x="661.5" y="444.27586206896547" as="sourcePoint" />
            <mxPoint x="796.5" y="362" as="targetPoint" />
          </mxGeometry>
        </mxCell>
        <mxCell id="RG_HLfE0qHDfHXsBsrbu-5" value="非同期処理&lt;br&gt;実行依頼" style="edgeStyle=orthogonalEdgeStyle;rounded=0;orthogonalLoop=1;jettySize=auto;html=1;entryX=0;entryY=0.5;entryDx=0;entryDy=0;entryPerimeter=0;exitX=1;exitY=0.5;exitDx=0;exitDy=0;exitPerimeter=0;" parent="1" source="X6AYHpFife-kMmc6WTGi-2" target="a2-S2WaQ287srOwUGOi5-1" edge="1">
          <mxGeometry x="0.5706" y="3" relative="1" as="geometry">
            <Array as="points">
              <mxPoint x="320" y="271" />
              <mxPoint x="320" y="444" />
            </Array>
            <mxPoint as="offset" />
            <mxPoint x="295.5" y="269.79999999999995" as="sourcePoint" />
            <mxPoint x="451" y="445" as="targetPoint" />
          </mxGeometry>
        </mxCell>
        <mxCell id="RG_HLfE0qHDfHXsBsrbu-6" value="非同期処理&lt;br&gt;実行依頼&lt;br&gt;取得" style="edgeStyle=orthogonalEdgeStyle;rounded=0;orthogonalLoop=1;jettySize=auto;html=1;exitX=0;exitY=0.5;exitDx=0;exitDy=0;exitPerimeter=0;" parent="1" source="a2-S2WaQ287srOwUGOi5-4" target="a2-S2WaQ287srOwUGOi5-1" edge="1">
          <mxGeometry relative="1" as="geometry">
            <mxPoint x="606" y="444.27586206896547" as="sourcePoint" />
            <mxPoint x="501" y="445" as="targetPoint" />
          </mxGeometry>
        </mxCell>
        <mxCell id="fPvCBzG8T-a7O2YUP0Nv-2" value="DB登録" style="edgeStyle=orthogonalEdgeStyle;rounded=0;orthogonalLoop=1;jettySize=auto;html=1;entryX=0;entryY=0.5;entryDx=0;entryDy=0;entryPerimeter=0;exitX=0.25;exitY=1;exitDx=0;exitDy=0;exitPerimeter=0;" parent="1" source="X6AYHpFife-kMmc6WTGi-2" target="eA0za893XeakfQyKnLoo-1" edge="1">
          <mxGeometry relative="1" as="geometry">
            <mxPoint x="253.875" y="297.5" as="sourcePoint" />
            <mxPoint x="300" y="569.5" as="targetPoint" />
          </mxGeometry>
        </mxCell>
        <mxCell id="fPvCBzG8T-a7O2YUP0Nv-5" value="DB取得・更新" style="edgeStyle=orthogonalEdgeStyle;rounded=0;orthogonalLoop=1;jettySize=auto;html=1;exitX=0.75;exitY=1;exitDx=0;exitDy=0;exitPerimeter=0;entryX=1;entryY=0.5;entryDx=0;entryDy=0;entryPerimeter=0;" parent="1" source="a2-S2WaQ287srOwUGOi5-4" target="eA0za893XeakfQyKnLoo-1" edge="1">
          <mxGeometry relative="1" as="geometry">
            <mxPoint x="640" y="471.9999999999999" as="sourcePoint" />
            <mxPoint x="351" y="569.5" as="targetPoint" />
          </mxGeometry>
        </mxCell>
        <mxCell id="BzWUj4KO12Ele2y3mgOO-2" value="一時ファイル&lt;br&gt;取得" style="edgeStyle=orthogonalEdgeStyle;rounded=0;orthogonalLoop=1;jettySize=auto;html=1;entryX=1;entryY=0.5;entryDx=0;entryDy=0;entryPerimeter=0;exitX=0.25;exitY=1;exitDx=0;exitDy=0;exitPerimeter=0;" parent="1" source="a2-S2WaQ287srOwUGOi5-4" target="Vw1h5yO-iNJ0NMlu88dw-1" edge="1">
          <mxGeometry x="0.1861" relative="1" as="geometry">
            <mxPoint as="offset" />
            <mxPoint x="610" y="472" as="sourcePoint" />
            <mxPoint x="414" y="506" as="targetPoint" />
            <Array as="points">
              <mxPoint x="620" y="506" />
            </Array>
          </mxGeometry>
        </mxCell>
        <mxCell id="BzWUj4KO12Ele2y3mgOO-3" value="一時ファイル&lt;br&gt;作成" style="edgeStyle=orthogonalEdgeStyle;rounded=0;orthogonalLoop=1;jettySize=auto;html=1;exitX=0.75;exitY=1;exitDx=0;exitDy=0;exitPerimeter=0;entryX=0;entryY=0.5;entryDx=0;entryDy=0;entryPerimeter=0;" parent="1" source="X6AYHpFife-kMmc6WTGi-2" target="Vw1h5yO-iNJ0NMlu88dw-1" edge="1">
          <mxGeometry x="0.7036" relative="1" as="geometry">
            <mxPoint as="offset" />
            <mxPoint x="281.625" y="297.5" as="sourcePoint" />
            <mxPoint x="374" y="506" as="targetPoint" />
          </mxGeometry>
        </mxCell>
        <mxCell id="cOqWIxdsFwBTmEWRnDCi-1" value="DynamoDB" style="sketch=0;points=[[0,0,0],[0.25,0,0],[0.5,0,0],[0.75,0,0],[1,0,0],[0,1,0],[0.25,1,0],[0.5,1,0],[0.75,1,0],[1,1,0],[0,0.25,0],[0,0.5,0],[0,0.75,0],[1,0.25,0],[1,0.5,0],[1,0.75,0]];outlineConnect=0;fontColor=#232F3E;fillColor=#C925D1;strokeColor=#ffffff;dashed=0;verticalLabelPosition=bottom;verticalAlign=top;align=center;html=1;fontSize=12;fontStyle=0;aspect=fixed;shape=mxgraph.aws4.resourceIcon;resIcon=mxgraph.aws4.dynamodb;" parent="1" vertex="1">
          <mxGeometry x="773" y="313.25" width="47.5" height="47.5" as="geometry" />
        </mxCell>
        <mxCell id="Vt9Lk5TL8UINfem4C1SL-1" value="Aurora Serverless v2&lt;br&gt;for PostgreSQL" style="sketch=0;points=[[0,0,0],[0.25,0,0],[0.5,0,0],[0.75,0,0],[1,0,0],[0,1,0],[0.25,1,0],[0.5,1,0],[0.75,1,0],[1,1,0],[0,0.25,0],[0,0.5,0],[0,0.75,0],[1,0.25,0],[1,0.5,0],[1,0.75,0]];outlineConnect=0;fontColor=#232F3E;fillColor=#C925D1;strokeColor=#ffffff;dashed=0;verticalLabelPosition=bottom;verticalAlign=top;align=center;html=1;fontSize=12;fontStyle=0;aspect=fixed;shape=mxgraph.aws4.resourceIcon;resIcon=mxgraph.aws4.aurora;" parent="1" vertex="1">
          <mxGeometry x="815" y="174" width="47" height="47" as="geometry" />
        </mxCell>
        <mxCell id="eA0za893XeakfQyKnLoo-1" value="DynamoDB" style="sketch=0;points=[[0,0,0],[0.25,0,0],[0.5,0,0],[0.75,0,0],[1,0,0],[0,1,0],[0.25,1,0],[0.5,1,0],[0.75,1,0],[1,1,0],[0,0.25,0],[0,0.5,0],[0,0.75,0],[1,0.25,0],[1,0.5,0],[1,0.75,0]];outlineConnect=0;fontColor=#232F3E;fillColor=#C925D1;strokeColor=#ffffff;dashed=0;verticalLabelPosition=bottom;verticalAlign=top;align=center;html=1;fontSize=12;fontStyle=0;aspect=fixed;shape=mxgraph.aws4.resourceIcon;resIcon=mxgraph.aws4.dynamodb;" parent="1" vertex="1">
          <mxGeometry x="300" y="542" width="47.5" height="47.5" as="geometry" />
        </mxCell>
        <mxCell id="k7k_gUskmTszR77qQNp9-1" value="&lt;div&gt;フロントエンド&lt;/div&gt;API Gateway&lt;div&gt;(Public API)&lt;/div&gt;" style="sketch=0;points=[[0,0,0],[0.25,0,0],[0.5,0,0],[0.75,0,0],[1,0,0],[0,1,0],[0.25,1,0],[0.5,1,0],[0.75,1,0],[1,1,0],[0,0.25,0],[0,0.5,0],[0,0.75,0],[1,0.25,0],[1,0.5,0],[1,0.75,0]];outlineConnect=0;fontColor=#232F3E;fillColor=#8C4FFF;strokeColor=#ffffff;dashed=0;verticalLabelPosition=bottom;verticalAlign=top;align=center;html=1;fontSize=12;fontStyle=0;aspect=fixed;shape=mxgraph.aws4.resourceIcon;resIcon=mxgraph.aws4.api_gateway;" parent="1" vertex="1">
          <mxGeometry x="120" y="239.25" width="61" height="61" as="geometry" />
        </mxCell>
        <mxCell id="X6AYHpFife-kMmc6WTGi-2" value="&lt;div&gt;Lambda&lt;/div&gt;&lt;div&gt;(BFF)&lt;/div&gt;" style="sketch=0;points=[[0,0,0],[0.25,0,0],[0.5,0,0],[0.75,0,0],[1,0,0],[0,1,0],[0.25,1,0],[0.5,1,0],[0.75,1,0],[1,1,0],[0,0.25,0],[0,0.5,0],[0,0.75,0],[1,0.25,0],[1,0.5,0],[1,0.75,0]];outlineConnect=0;fontColor=#232F3E;fillColor=#ED7100;strokeColor=#ffffff;dashed=0;verticalLabelPosition=bottom;verticalAlign=top;align=center;html=1;fontSize=12;fontStyle=0;aspect=fixed;shape=mxgraph.aws4.resourceIcon;resIcon=mxgraph.aws4.lambda;" parent="1" vertex="1">
          <mxGeometry x="240" y="239.25" width="62.75" height="62.75" as="geometry" />
        </mxCell>
        <mxCell id="X6AYHpFife-kMmc6WTGi-4" value="&lt;div&gt;バックエンド&lt;/div&gt;API Gateway&lt;div&gt;(Privte API)&lt;/div&gt;" style="sketch=0;points=[[0,0,0],[0.25,0,0],[0.5,0,0],[0.75,0,0],[1,0,0],[0,1,0],[0.25,1,0],[0.5,1,0],[0.75,1,0],[1,1,0],[0,0.25,0],[0,0.5,0],[0,0.75,0],[1,0.25,0],[1,0.5,0],[1,0.75,0]];outlineConnect=0;fontColor=#232F3E;fillColor=#8C4FFF;strokeColor=#ffffff;dashed=0;verticalLabelPosition=bottom;verticalAlign=top;align=center;html=1;fontSize=12;fontStyle=0;aspect=fixed;shape=mxgraph.aws4.resourceIcon;resIcon=mxgraph.aws4.api_gateway;" parent="1" vertex="1">
          <mxGeometry x="484" y="169.25" width="52.75" height="52.75" as="geometry" />
        </mxCell>
        <mxCell id="X6AYHpFife-kMmc6WTGi-5" value="&lt;div&gt;バックエンド&lt;/div&gt;API Gateway&lt;div&gt;(Privte API)&lt;/div&gt;" style="sketch=0;points=[[0,0,0],[0.25,0,0],[0.5,0,0],[0.75,0,0],[1,0,0],[0,1,0],[0.25,1,0],[0.5,1,0],[0.75,1,0],[1,1,0],[0,0.25,0],[0,0.5,0],[0,0.75,0],[1,0.25,0],[1,0.5,0],[1,0.75,0]];outlineConnect=0;fontColor=#232F3E;fillColor=#8C4FFF;strokeColor=#ffffff;dashed=0;verticalLabelPosition=bottom;verticalAlign=top;align=center;html=1;fontSize=12;fontStyle=0;aspect=fixed;shape=mxgraph.aws4.resourceIcon;resIcon=mxgraph.aws4.api_gateway;" parent="1" vertex="1">
          <mxGeometry x="484" y="310.63" width="52.75" height="52.75" as="geometry" />
        </mxCell>
        <mxCell id="a2-S2WaQ287srOwUGOi5-1" value="SQS" style="sketch=0;points=[[0,0,0],[0.25,0,0],[0.5,0,0],[0.75,0,0],[1,0,0],[0,1,0],[0.25,1,0],[0.5,1,0],[0.75,1,0],[1,1,0],[0,0.25,0],[0,0.5,0],[0,0.75,0],[1,0.25,0],[1,0.5,0],[1,0.75,0]];outlineConnect=0;fontColor=#232F3E;fillColor=#E7157B;strokeColor=#ffffff;dashed=0;verticalLabelPosition=bottom;verticalAlign=top;align=center;html=1;fontSize=12;fontStyle=0;aspect=fixed;shape=mxgraph.aws4.resourceIcon;resIcon=mxgraph.aws4.sqs;" parent="1" vertex="1">
          <mxGeometry x="450" y="420.75" width="47" height="47" as="geometry" />
        </mxCell>
        <mxCell id="a2-S2WaQ287srOwUGOi5-2" value="&lt;div&gt;Lambda&lt;/div&gt;&lt;div&gt;(User API)&lt;/div&gt;" style="sketch=0;points=[[0,0,0],[0.25,0,0],[0.5,0,0],[0.75,0,0],[1,0,0],[0,1,0],[0.25,1,0],[0.5,1,0],[0.75,1,0],[1,1,0],[0,0.25,0],[0,0.5,0],[0,0.75,0],[1,0.25,0],[1,0.5,0],[1,0.75,0]];outlineConnect=0;fontColor=#232F3E;fillColor=#ED7100;strokeColor=#ffffff;dashed=0;verticalLabelPosition=bottom;verticalAlign=top;align=center;html=1;fontSize=12;fontStyle=0;aspect=fixed;shape=mxgraph.aws4.resourceIcon;resIcon=mxgraph.aws4.lambda;" parent="1" vertex="1">
          <mxGeometry x="606" y="169.5" width="54.5" height="54.5" as="geometry" />
        </mxCell>
        <mxCell id="a2-S2WaQ287srOwUGOi5-3" value="&lt;div&gt;Lambda&lt;/div&gt;&lt;div&gt;(Todo API)&lt;/div&gt;" style="sketch=0;points=[[0,0,0],[0.25,0,0],[0.5,0,0],[0.75,0,0],[1,0,0],[0,1,0],[0.25,1,0],[0.5,1,0],[0.75,1,0],[1,1,0],[0,0.25,0],[0,0.5,0],[0,0.75,0],[1,0.25,0],[1,0.5,0],[1,0.75,0]];outlineConnect=0;fontColor=#232F3E;fillColor=#ED7100;strokeColor=#ffffff;dashed=0;verticalLabelPosition=bottom;verticalAlign=top;align=center;html=1;fontSize=12;fontStyle=0;aspect=fixed;shape=mxgraph.aws4.resourceIcon;resIcon=mxgraph.aws4.lambda;" parent="1" vertex="1">
          <mxGeometry x="606" y="308.88" width="54.5" height="54.5" as="geometry" />
        </mxCell>
        <mxCell id="a2-S2WaQ287srOwUGOi5-4" value="&lt;div&gt;Lambda&lt;/div&gt;&lt;div&gt;(Todo ディレード)&lt;/div&gt;" style="sketch=0;points=[[0,0,0],[0.25,0,0],[0.5,0,0],[0.75,0,0],[1,0,0],[0,1,0],[0.25,1,0],[0.5,1,0],[0.75,1,0],[1,1,0],[0,0.25,0],[0,0.5,0],[0,0.75,0],[1,0.25,0],[1,0.5,0],[1,0.75,0]];outlineConnect=0;fontColor=#232F3E;fillColor=#ED7100;strokeColor=#ffffff;dashed=0;verticalLabelPosition=bottom;verticalAlign=top;align=center;html=1;fontSize=12;fontStyle=0;aspect=fixed;shape=mxgraph.aws4.resourceIcon;resIcon=mxgraph.aws4.lambda;" parent="1" vertex="1">
          <mxGeometry x="606" y="417" width="54.5" height="54.5" as="geometry" />
        </mxCell>
        <mxCell id="CxOPl1rAAIx8G7x6cEo1-1" value="ユーザ&lt;br&gt;テーブル&lt;br&gt;(m_user)" style="sketch=0;outlineConnect=0;fontColor=#232F3E;gradientColor=none;fillColor=#C925D1;strokeColor=none;dashed=0;verticalLabelPosition=bottom;verticalAlign=top;align=center;html=1;fontSize=12;fontStyle=0;aspect=fixed;pointerEvents=1;shape=mxgraph.aws4.table;" parent="1" vertex="1">
          <mxGeometry x="915" y="184.13" width="32.75" height="32.75" as="geometry" />
        </mxCell>
        <mxCell id="CxOPl1rAAIx8G7x6cEo1-2" value="Todo&lt;br&gt;テーブル&lt;br&gt;(todo)" style="sketch=0;outlineConnect=0;fontColor=#232F3E;gradientColor=none;fillColor=#C925D1;strokeColor=none;dashed=0;verticalLabelPosition=bottom;verticalAlign=top;align=center;html=1;fontSize=12;fontStyle=0;aspect=fixed;pointerEvents=1;shape=mxgraph.aws4.table;" parent="1" vertex="1">
          <mxGeometry x="868" y="320.63" width="32.75" height="32.75" as="geometry" />
        </mxCell>
        <mxCell id="CxOPl1rAAIx8G7x6cEo1-3" value="キューメッセージ管理&lt;br&gt;テーブル&lt;br&gt;(queue_message)&lt;br&gt;※業務のDB更新と&lt;br style=&quot;border-color: var(--border-color); color: rgb(0, 0, 0);&quot;&gt;&lt;span style=&quot;color: rgb(0, 0, 0);&quot;&gt;SQSメッセージ送達の&lt;br&gt;データ整合性を担保するための&lt;br&gt;ソフトウェアフレームワーク機能が&lt;br&gt;管理するテーブル&lt;/span&gt;" style="sketch=0;outlineConnect=0;fontColor=#232F3E;gradientColor=none;fillColor=#C925D1;strokeColor=none;dashed=0;verticalLabelPosition=bottom;verticalAlign=top;align=center;html=1;fontSize=12;fontStyle=0;aspect=fixed;pointerEvents=1;shape=mxgraph.aws4.table;" parent="1" vertex="1">
          <mxGeometry x="270" y="630" width="32.75" height="32.75" as="geometry" />
        </mxCell>
        <mxCell id="CxOPl1rAAIx8G7x6cEo1-4" value="一時保存用テーブル&lt;br&gt;(temp)&lt;br&gt;※ディレードの後方処理へ&lt;br&gt;受け渡すデータ保管する&lt;br&gt;業務テーブル" style="sketch=0;outlineConnect=0;fontColor=#232F3E;gradientColor=none;fillColor=#C925D1;strokeColor=none;dashed=0;verticalLabelPosition=bottom;verticalAlign=top;align=center;html=1;fontSize=12;fontStyle=0;aspect=fixed;pointerEvents=1;shape=mxgraph.aws4.table;" parent="1" vertex="1">
          <mxGeometry x="616.88" y="630" width="32.75" height="32.75" as="geometry" />
        </mxCell>
        <mxCell id="Vw1h5yO-iNJ0NMlu88dw-1" value="S3" style="sketch=0;points=[[0,0,0],[0.25,0,0],[0.5,0,0],[0.75,0,0],[1,0,0],[0,1,0],[0.25,1,0],[0.5,1,0],[0.75,1,0],[1,1,0],[0,0.25,0],[0,0.5,0],[0,0.75,0],[1,0.25,0],[1,0.5,0],[1,0.75,0]];outlineConnect=0;fontColor=#232F3E;fillColor=#7AA116;strokeColor=#ffffff;dashed=0;verticalLabelPosition=bottom;verticalAlign=top;align=center;html=1;fontSize=12;fontStyle=0;aspect=fixed;shape=mxgraph.aws4.resourceIcon;resIcon=mxgraph.aws4.s3;" parent="1" vertex="1">
          <mxGeometry x="374" y="482" width="46" height="46" as="geometry" />
        </mxCell>
        <mxCell id="AK8TM2isb59Z6VP5CecX-1" style="edgeStyle=orthogonalEdgeStyle;rounded=0;orthogonalLoop=1;jettySize=auto;html=1;entryX=0;entryY=0.5;entryDx=0;entryDy=0;entryPerimeter=0;" parent="1" target="AK8TM2isb59Z6VP5CecX-5" edge="1">
          <mxGeometry relative="1" as="geometry">
            <mxPoint x="536" y="87.75" as="sourcePoint" />
            <mxPoint x="606" y="87.85000000000002" as="targetPoint" />
          </mxGeometry>
        </mxCell>
        <mxCell id="AK8TM2isb59Z6VP5CecX-2" value="DB登録・取得" style="edgeStyle=orthogonalEdgeStyle;rounded=0;orthogonalLoop=1;jettySize=auto;html=1;exitX=1;exitY=0.5;exitDx=0;exitDy=0;exitPerimeter=0;" parent="1" source="AK8TM2isb59Z6VP5CecX-5" target="D97vP9q7ubsvFRrqNMWn-6" edge="1">
          <mxGeometry relative="1" as="geometry">
            <mxPoint x="650" y="82.75" as="sourcePoint" />
            <mxPoint x="773" y="88.29411764705878" as="targetPoint" />
          </mxGeometry>
        </mxCell>
        <mxCell id="AK8TM2isb59Z6VP5CecX-4" value="&lt;div&gt;バックエンド&lt;/div&gt;API Gateway&lt;div&gt;(Privte API)&lt;/div&gt;" style="sketch=0;points=[[0,0,0],[0.25,0,0],[0.5,0,0],[0.75,0,0],[1,0,0],[0,1,0],[0.25,1,0],[0.5,1,0],[0.75,1,0],[1,1,0],[0,0.25,0],[0,0.5,0],[0,0.75,0],[1,0.25,0],[1,0.5,0],[1,0.75,0]];outlineConnect=0;fontColor=#232F3E;fillColor=#8C4FFF;strokeColor=#ffffff;dashed=0;verticalLabelPosition=bottom;verticalAlign=top;align=center;html=1;fontSize=12;fontStyle=0;aspect=fixed;shape=mxgraph.aws4.resourceIcon;resIcon=mxgraph.aws4.api_gateway;" parent="1" vertex="1">
          <mxGeometry x="484" y="60" width="52.75" height="52.75" as="geometry" />
        </mxCell>
        <mxCell id="AK8TM2isb59Z6VP5CecX-5" value="&lt;div&gt;Lambda&lt;/div&gt;&lt;div&gt;(Book API)&lt;/div&gt;" style="sketch=0;points=[[0,0,0],[0.25,0,0],[0.5,0,0],[0.75,0,0],[1,0,0],[0,1,0],[0.25,1,0],[0.5,1,0],[0.75,1,0],[1,1,0],[0,0.25,0],[0,0.5,0],[0,0.75,0],[1,0.25,0],[1,0.5,0],[1,0.75,0]];outlineConnect=0;fontColor=#232F3E;fillColor=#ED7100;strokeColor=#ffffff;dashed=0;verticalLabelPosition=bottom;verticalAlign=top;align=center;html=1;fontSize=12;fontStyle=0;aspect=fixed;shape=mxgraph.aws4.resourceIcon;resIcon=mxgraph.aws4.lambda;" parent="1" vertex="1">
          <mxGeometry x="606" y="60.25" width="54.5" height="54.5" as="geometry" />
        </mxCell>
        <mxCell id="AK8TM2isb59Z6VP5CecX-7" style="edgeStyle=orthogonalEdgeStyle;rounded=0;orthogonalLoop=1;jettySize=auto;html=1;entryX=0;entryY=0.5;entryDx=0;entryDy=0;entryPerimeter=0;" parent="1" source="X6AYHpFife-kMmc6WTGi-2" target="AK8TM2isb59Z6VP5CecX-4" edge="1">
          <mxGeometry relative="1" as="geometry">
            <Array as="points">
              <mxPoint x="350" y="271" />
              <mxPoint x="350" y="86" />
            </Array>
          </mxGeometry>
        </mxCell>
        <mxCell id="AK8TM2isb59Z6VP5CecX-8" value="REST API呼び出し&lt;div&gt;（Book API）&lt;/div&gt;" style="edgeLabel;html=1;align=center;verticalAlign=middle;resizable=0;points=[];" parent="AK8TM2isb59Z6VP5CecX-7" vertex="1" connectable="0">
          <mxGeometry x="0.6661" y="-2" relative="1" as="geometry">
            <mxPoint as="offset" />
          </mxGeometry>
        </mxCell>
        <mxCell id="D97vP9q7ubsvFRrqNMWn-6" value="DocumentDB" style="sketch=0;points=[[0,0,0],[0.25,0,0],[0.5,0,0],[0.75,0,0],[1,0,0],[0,1,0],[0.25,1,0],[0.5,1,0],[0.75,1,0],[1,1,0],[0,0.25,0],[0,0.5,0],[0,0.75,0],[1,0.25,0],[1,0.5,0],[1,0.75,0]];outlineConnect=0;fontColor=#232F3E;fillColor=#C925D1;strokeColor=#ffffff;dashed=0;verticalLabelPosition=bottom;verticalAlign=top;align=center;html=1;fontSize=12;fontStyle=0;aspect=fixed;shape=mxgraph.aws4.resourceIcon;resIcon=mxgraph.aws4.documentdb_with_mongodb_compatibility;" parent="1" vertex="1">
          <mxGeometry x="770" y="62" width="48" height="48" as="geometry" />
        </mxCell>
        <mxCell id="D97vP9q7ubsvFRrqNMWn-7" value="DB登録・取得" style="edgeStyle=orthogonalEdgeStyle;rounded=0;orthogonalLoop=1;jettySize=auto;html=1;exitX=1;exitY=0.5;exitDx=0;exitDy=0;exitPerimeter=0;" parent="1" source="a2-S2WaQ287srOwUGOi5-2" target="D97vP9q7ubsvFRrqNMWn-4" edge="1">
          <mxGeometry relative="1" as="geometry">
            <mxPoint x="661" y="197" as="sourcePoint" />
            <mxPoint x="773" y="197" as="targetPoint" />
          </mxGeometry>
        </mxCell>
        <mxCell id="D97vP9q7ubsvFRrqNMWn-4" value="" style="sketch=0;outlineConnect=0;fontColor=#232F3E;gradientColor=none;fillColor=#C925D1;strokeColor=none;dashed=0;verticalLabelPosition=bottom;verticalAlign=top;align=center;html=1;fontSize=12;fontStyle=0;aspect=fixed;pointerEvents=1;shape=mxgraph.aws4.rds_proxy_alt;" parent="1" vertex="1">
          <mxGeometry x="761" y="180.8789247311828" width="33" height="33" as="geometry" />
        </mxCell>
        <mxCell id="D97vP9q7ubsvFRrqNMWn-9" style="edgeStyle=orthogonalEdgeStyle;rounded=0;orthogonalLoop=1;jettySize=auto;html=1;entryX=0;entryY=0.5;entryDx=0;entryDy=0;entryPerimeter=0;" parent="1" source="D97vP9q7ubsvFRrqNMWn-4" target="Vt9Lk5TL8UINfem4C1SL-1" edge="1">
          <mxGeometry relative="1" as="geometry" />
        </mxCell>
        <mxCell id="D97vP9q7ubsvFRrqNMWn-10" value="&lt;div&gt;書籍情報&lt;/div&gt;&lt;div&gt;コレクション&lt;br&gt;&lt;div&gt;（books）&lt;/div&gt;&lt;/div&gt;" style="sketch=0;outlineConnect=0;fontColor=#232F3E;gradientColor=none;fillColor=#C925D1;strokeColor=none;dashed=0;verticalLabelPosition=bottom;verticalAlign=top;align=center;html=1;fontSize=12;fontStyle=0;aspect=fixed;pointerEvents=1;shape=mxgraph.aws4.table;" parent="1" vertex="1">
          <mxGeometry x="868" y="69.61999999999999" width="32.75" height="32.75" as="geometry" />
        </mxCell>
        <mxCell id="Iu8bsvbHEho9wAoLJjhV-1" value="二重実行防止テーブル&lt;br&gt;(idempotency)&lt;br&gt;※二重実行防止&lt;span style=&quot;background-color: initial;&quot;&gt;するための&lt;/span&gt;&lt;div&gt;&lt;span style=&quot;background-color: initial;&quot;&gt;ソフトウェアフレームワーク機能&lt;/span&gt;&lt;/div&gt;&lt;div&gt;&lt;span style=&quot;background-color: initial;&quot;&gt;が管理するテーブル&lt;/span&gt;&lt;/div&gt;" style="sketch=0;outlineConnect=0;fontColor=#232F3E;gradientColor=none;fillColor=#C925D1;strokeColor=none;dashed=0;verticalLabelPosition=bottom;verticalAlign=top;align=center;html=1;fontSize=12;fontStyle=0;aspect=fixed;pointerEvents=1;shape=mxgraph.aws4.table;" vertex="1" parent="1">
          <mxGeometry x="430" y="630" width="32.75" height="32.75" as="geometry" />
        </mxCell>
      </root>
    </mxGraphModel>
  </diagram>
  <diagram id="XewdXP9E9S4cb4t9GMnk" name="Page-3">
    <mxGraphModel dx="1221" dy="725" grid="1" gridSize="10" guides="1" tooltips="1" connect="1" arrows="1" fold="1" page="1" pageScale="1" pageWidth="1169" pageHeight="827" math="0" shadow="0">
      <root>
        <mxCell id="0" />
        <mxCell id="1" parent="0" />
        <mxCell id="mA3xAhV8nrMJCDQnl757-4" value="" style="fillColor=none;strokeColor=#5A6C86;dashed=1;verticalAlign=top;fontStyle=0;fontColor=#5A6C86;whiteSpace=wrap;html=1;" parent="1" vertex="1">
          <mxGeometry x="190" y="190" width="490" height="360" as="geometry" />
        </mxCell>
        <mxCell id="byhe82QjHHI9sgKKT3mS-4" style="edgeStyle=orthogonalEdgeStyle;rounded=0;orthogonalLoop=1;jettySize=auto;html=1;exitX=1;exitY=0.5;exitDx=0;exitDy=0;exitPerimeter=0;" parent="1" source="CTqHV77CqYVUHva1xFlc-1" target="byhe82QjHHI9sgKKT3mS-3" edge="1">
          <mxGeometry relative="1" as="geometry">
            <mxPoint x="758" y="314" as="sourcePoint" />
          </mxGeometry>
        </mxCell>
        <mxCell id="mA3xAhV8nrMJCDQnl757-2" value="Lambda実行環境" style="sketch=0;points=[[0,0,0],[0.25,0,0],[0.5,0,0],[0.75,0,0],[1,0,0],[0,1,0],[0.25,1,0],[0.5,1,0],[0.75,1,0],[1,1,0],[0,0.25,0],[0,0.5,0],[0,0.75,0],[1,0.25,0],[1,0.5,0],[1,0.75,0]];outlineConnect=0;fontColor=#232F3E;fillColor=#ED7100;strokeColor=#ffffff;dashed=0;verticalLabelPosition=bottom;verticalAlign=top;align=center;html=1;fontSize=12;fontStyle=0;aspect=fixed;shape=mxgraph.aws4.resourceIcon;resIcon=mxgraph.aws4.lambda;" parent="1" vertex="1">
          <mxGeometry x="205" y="140" width="78" height="78" as="geometry" />
        </mxCell>
        <mxCell id="mA3xAhV8nrMJCDQnl757-6" value="HTTPのエンドポイントで&lt;br&gt;extensionを呼び出し&lt;br&gt;" style="edgeStyle=orthogonalEdgeStyle;rounded=0;orthogonalLoop=1;jettySize=auto;html=1;" parent="1" source="mA3xAhV8nrMJCDQnl757-3" target="mA3xAhV8nrMJCDQnl757-5" edge="1">
          <mxGeometry relative="1" as="geometry" />
        </mxCell>
        <mxCell id="mA3xAhV8nrMJCDQnl757-3" value="Lambda&lt;br&gt;Function" style="sketch=0;outlineConnect=0;fontColor=#232F3E;gradientColor=none;fillColor=#ED7100;strokeColor=none;dashed=0;verticalLabelPosition=bottom;verticalAlign=top;align=center;html=1;fontSize=12;fontStyle=0;aspect=fixed;pointerEvents=1;shape=mxgraph.aws4.lambda_function;" parent="1" vertex="1">
          <mxGeometry x="210" y="280" width="68" height="68" as="geometry" />
        </mxCell>
        <mxCell id="mA3xAhV8nrMJCDQnl757-8" value="設定のキャッシュの&lt;br&gt;取得／更新" style="edgeStyle=orthogonalEdgeStyle;rounded=0;orthogonalLoop=1;jettySize=auto;html=1;" parent="1" source="mA3xAhV8nrMJCDQnl757-5" target="mA3xAhV8nrMJCDQnl757-7" edge="1">
          <mxGeometry x="0.5005" relative="1" as="geometry">
            <mxPoint as="offset" />
          </mxGeometry>
        </mxCell>
        <mxCell id="mA3xAhV8nrMJCDQnl757-10" value="定期的に&lt;br&gt;AppConfigへ&lt;br&gt;設定の更新&lt;br&gt;を確認" style="edgeStyle=orthogonalEdgeStyle;rounded=0;orthogonalLoop=1;jettySize=auto;html=1;" parent="1" source="mA3xAhV8nrMJCDQnl757-5" target="561XzmNqnouzvSHtabVg-1" edge="1">
          <mxGeometry relative="1" as="geometry">
            <mxPoint x="610" y="314" as="targetPoint" />
            <mxPoint as="offset" />
          </mxGeometry>
        </mxCell>
        <mxCell id="mA3xAhV8nrMJCDQnl757-5" value="AppConfig&lt;br&gt;Lambda extension" style="sketch=0;points=[[0,0,0],[0.25,0,0],[0.5,0,0],[0.75,0,0],[1,0,0],[0,1,0],[0.25,1,0],[0.5,1,0],[0.75,1,0],[1,1,0],[0,0.25,0],[0,0.5,0],[0,0.75,0],[1,0.25,0],[1,0.5,0],[1,0.75,0]];gradientDirection=north;outlineConnect=0;fontColor=#232F3E;gradientColor=none;fillColor=#1E262E;strokeColor=#ffffff;dashed=0;verticalLabelPosition=bottom;verticalAlign=top;align=center;html=1;fontSize=12;fontStyle=0;aspect=fixed;shape=mxgraph.aws4.resourceIcon;resIcon=mxgraph.aws4.general;" parent="1" vertex="1">
          <mxGeometry x="426" y="275" width="78" height="78" as="geometry" />
        </mxCell>
        <mxCell id="mA3xAhV8nrMJCDQnl757-7" value="Local&lt;br&gt;configuration cache" style="sketch=0;outlineConnect=0;fontColor=#232F3E;gradientColor=none;fillColor=#232F3D;strokeColor=none;dashed=0;verticalLabelPosition=bottom;verticalAlign=top;align=center;html=1;fontSize=12;fontStyle=0;aspect=fixed;pointerEvents=1;shape=mxgraph.aws4.generic_database;" parent="1" vertex="1">
          <mxGeometry x="447.61" y="454" width="34.79" height="46" as="geometry" />
        </mxCell>
        <mxCell id="kh04YUVALaLwofy-gnH--1" style="edgeStyle=orthogonalEdgeStyle;rounded=0;orthogonalLoop=1;jettySize=auto;html=1;entryX=0;entryY=0.5;entryDx=0;entryDy=0;entryPerimeter=0;" parent="1" source="561XzmNqnouzvSHtabVg-1" target="CTqHV77CqYVUHva1xFlc-1" edge="1">
          <mxGeometry relative="1" as="geometry">
            <mxPoint x="660" y="314" as="sourcePoint" />
            <mxPoint x="710" y="314" as="targetPoint" />
          </mxGeometry>
        </mxCell>
        <mxCell id="byhe82QjHHI9sgKKT3mS-2" style="edgeStyle=orthogonalEdgeStyle;rounded=0;orthogonalLoop=1;jettySize=auto;html=1;entryX=0;entryY=0.5;entryDx=0;entryDy=0;entryPerimeter=0;exitX=1;exitY=0.5;exitDx=0;exitDy=0;exitPerimeter=0;" parent="1" source="CTqHV77CqYVUHva1xFlc-1" target="1_6wl_4dAu5gyjLYCzW9-1" edge="1">
          <mxGeometry relative="1" as="geometry">
            <mxPoint x="758" y="314" as="sourcePoint" />
            <mxPoint x="840" y="400" as="targetPoint" />
          </mxGeometry>
        </mxCell>
        <mxCell id="byhe82QjHHI9sgKKT3mS-3" value="Hosted&lt;br&gt;Configuration&lt;br&gt;※一般的な設定" style="sketch=0;outlineConnect=0;fontColor=#232F3E;gradientColor=none;fillColor=#232F3D;strokeColor=none;dashed=0;verticalLabelPosition=bottom;verticalAlign=top;align=center;html=1;fontSize=12;fontStyle=0;aspect=fixed;pointerEvents=1;shape=mxgraph.aws4.document;" parent="1" vertex="1">
          <mxGeometry x="842.09" y="250" width="35.81" height="49" as="geometry" />
        </mxCell>
        <mxCell id="561XzmNqnouzvSHtabVg-1" value="AWS&lt;br&gt;SDK" style="sketch=0;points=[[0,0,0],[0.25,0,0],[0.5,0,0],[0.75,0,0],[1,0,0],[0,1,0],[0.25,1,0],[0.5,1,0],[0.75,1,0],[1,1,0],[0,0.25,0],[0,0.5,0],[0,0.75,0],[1,0.25,0],[1,0.5,0],[1,0.75,0]];outlineConnect=0;fontColor=#232F3E;fillColor=#C925D1;strokeColor=#ffffff;dashed=0;verticalLabelPosition=bottom;verticalAlign=top;align=center;html=1;fontSize=12;fontStyle=0;aspect=fixed;shape=mxgraph.aws4.resourceIcon;resIcon=mxgraph.aws4.tools_and_sdks;" vertex="1" parent="1">
          <mxGeometry x="610" y="290" width="50" height="50" as="geometry" />
        </mxCell>
        <mxCell id="1_6wl_4dAu5gyjLYCzW9-1" value="SecretsManager" style="sketch=0;points=[[0,0,0],[0.25,0,0],[0.5,0,0],[0.75,0,0],[1,0,0],[0,1,0],[0.25,1,0],[0.5,1,0],[0.75,1,0],[1,1,0],[0,0.25,0],[0,0.5,0],[0,0.75,0],[1,0.25,0],[1,0.5,0],[1,0.75,0]];outlineConnect=0;fontColor=#232F3E;fillColor=#DD344C;strokeColor=#ffffff;dashed=0;verticalLabelPosition=bottom;verticalAlign=top;align=center;html=1;fontSize=12;fontStyle=0;aspect=fixed;shape=mxgraph.aws4.resourceIcon;resIcon=mxgraph.aws4.secrets_manager;" vertex="1" parent="1">
          <mxGeometry x="842.09" y="380" width="42" height="42" as="geometry" />
        </mxCell>
        <mxCell id="CTqHV77CqYVUHva1xFlc-1" value="AppConfig" style="sketch=0;points=[[0,0,0],[0.25,0,0],[0.5,0,0],[0.75,0,0],[1,0,0],[0,1,0],[0.25,1,0],[0.5,1,0],[0.75,1,0],[1,1,0],[0,0.25,0],[0,0.5,0],[0,0.75,0],[1,0.25,0],[1,0.5,0],[1,0.75,0]];points=[[0,0,0],[0.25,0,0],[0.5,0,0],[0.75,0,0],[1,0,0],[0,1,0],[0.25,1,0],[0.5,1,0],[0.75,1,0],[1,1,0],[0,0.25,0],[0,0.5,0],[0,0.75,0],[1,0.25,0],[1,0.5,0],[1,0.75,0]];outlineConnect=0;fontColor=#232F3E;fillColor=#E7157B;strokeColor=#ffffff;dashed=0;verticalLabelPosition=bottom;verticalAlign=top;align=center;html=1;fontSize=12;fontStyle=0;aspect=fixed;shape=mxgraph.aws4.resourceIcon;resIcon=mxgraph.aws4.app_config;" vertex="1" parent="1">
          <mxGeometry x="710" y="291" width="47" height="47" as="geometry" />
        </mxCell>
      </root>
    </mxGraphModel>
  </diagram>
</mxfile>
